<svg width="229.67799" height="40.086998" xmlns="http://www.w3.org/2000/svg">
 <metadata id="metadata55">image/svg+xml</metadata>
 <g>
  <g id="svg_1">
   <path d="m111.862999,25.062c-0.219002,0.487 -1.362999,2.692999 -4.227997,2.692999c-3.318001,0 -4.612,-2.751999 -4.612,-4.796999c0,-3.381001 2.277,-6.419001 5.628998,-6.419001c3.608002,0 4.468002,2.687 4.551003,3.174l5.306,0c0.318001,-1.983999 -1.256004,-8.049999 -9.653,-8.049999c-6.142014,0 -11.056,4.906 -11.056,11.462999c0,5.365 3.352997,9.501999 9.566986,9.501999c7.745003,0 9.836014,-6.074999 10.092003,-7.565998l-5.596001,0l0.000008,0z" id="path9" fill="#828282"/>
   <path d="m71.139999,26.540001c0,-0.310001 0.082001,-0.896 0.355003,-2.128c0.264,-1.235001 4.013,-18.506001 4.013,-18.506001l-4.980003,0l-4.131996,19.052c-0.174004,0.801001 -0.249001,1.591 -0.249001,2.289c0,4.177999 3.231987,5.406 5.819,5.406c0.925987,0 1.784996,-0.153999 2,-0.181999c0.081985,-0.417999 0.862999,-4.005001 0.900986,-4.162001c-0.112,0.007999 -0.660995,0.049 -1.297997,0.049c-1.851006,0.000999 -2.429001,-0.785 -2.429001,-1.817999l0.000008,0z" id="path11" fill="#828282"/>
   <polygon points="134.92 11.729 125.998 19.763 129.005 5.865 123.989 5.865 118.294 32.232 123.306 32.232 124.691 25.825 127.775 23.37 132.039 32.232 137.619 32.232 131.568 20.363 141.867 11.729" id="polygon13" fill="#828282"/>
   <path d="m43.764999,24.082001c0.417,-1.890001 3.950001,-18.209001 3.950001,-18.209001c0,0 6.088001,0 9.488998,0c6.884998,0 8.578999,3.827 8.578999,6.149c0,5.137 -4.851997,6.496999 -5.445995,6.683c0.552998,0.181999 3.702,1.43 3.702,5.464001c0,4.389 -4.046001,8.066 -10.319,8.066c0,0 -2.25,0 -2.861,0c-5.268002,0.000999 -8.097,-3.616001 -7.094002,-8.153zm14.857002,-0.323c0,-1.239 -0.798,-2.811001 -4.341003,-2.811001l-4.600998,0l-1.378002,6.377001l5.209003,0c3.370998,0 5.111,-1.519001 5.111,-3.566zm1.706997,-10.624001c0,-1.282001 -0.975998,-2.385 -3.365997,-2.385l-5.077,0l-1.151001,5.323l5.290001,0c2.848999,-0.000999 4.303997,-1.375999 4.303997,-2.938z" id="path15" fill="#828282"/>
   <path d="m139.582001,24.082001c0.417999,-1.890001 3.949997,-18.209001 3.949997,-18.209001c0,0 6.087997,0 9.492996,0c6.88501,0 8.580002,3.827 8.580002,6.149c0,5.137 -4.85199,6.496999 -5.446991,6.683c0.544998,0.181999 3.702988,1.43 3.702988,5.464001c0,4.389 -4.05098,8.066 -10.32399,8.066c0,0 -2.247986,0 -2.859009,0c-5.269989,0.000999 -8.099991,-3.616001 -7.095978,-8.153l-0.000015,0zm14.856995,-0.323c0,-1.239 -0.799011,-2.811001 -4.340012,-2.811001l-4.603989,0l-1.376999,6.377001l5.210999,0c3.37001,0 5.110001,-1.519001 5.110001,-3.566zm1.706009,-10.624001c0,-1.282001 -0.972,-2.385 -3.368011,-2.385l-5.074997,0l-1.149002,5.323l5.291,0c2.847,-0.000999 4.30101,-1.375999 4.30101,-2.938z" id="path17" fill="#828282"/>
   <path d="m196.039001,11.741c-5.313995,0 -8.928009,3.145 -10.145996,9.047c-0.524002,2.537001 -2.451004,11.455 -2.451004,11.455l4.977005,0c0,0 1.834,-8.48 2.413986,-11.145c0.760025,-3.493 2.60701,-4.678999 5.090012,-4.678999c0.802994,0 1.314011,0.091 1.575012,0.128c0.136978,-0.703001 0.830978,-3.856001 0.996979,-4.629001c-0.539001,-0.069 -1.389999,-0.177 -2.455978,-0.177l-0.000015,0z" id="path19" fill="#828282"/>
   <path d="m212.973999,40.087002l16.703995,-28.346002l-5.375992,0l-7.675995,13.339999l-1.793015,-13.355999c0,0 -2.735977,0 -5.751999,0c-6.587997,0 -10.001999,3.013 -11.212997,8.778c-0.606979,2.876999 -2.537003,11.74 -2.537003,11.74l4.979004,0c0,0 1.826996,-8.417999 2.554001,-11.815001c0.703003,-3.298 3.149002,-4.306 5.787003,-3.743999l1.048996,-4.839c0.777008,4.596 3.153,19.279 3.153,19.279l-5.21199,8.963001l5.332993,0z" id="path21" fill="#828282"/>
   <path d="m85.516998,23.499001c1.096001,-0.162001 4.303001,-0.657001 4.740013,-0.719c-0.082001,0.341999 -0.211014,0.889 -0.306015,1.292999c-0.578987,2.479 -3.103996,4.070999 -5.889,4.070999c-1.776985,0 -2.814987,-0.955999 -2.814987,-2.091999c0.000999,-0.938 0.861,-2.049 4.270004,-2.552999l-0.000015,0zm-1.862999,-5.339001c0.123001,-0.202999 1.403999,-2.177999 4.595001,-2.177999c1.984001,0 3.000999,0.723999 3.000999,1.6c0,1.236 -2,1.557999 -5.463997,2.053999c-5.951004,0.860001 -9.712013,2.707001 -9.712013,7.005001c0,3.046 2.528999,6.013998 7.021004,6.013998c3.731995,0 5.682999,-2.252998 5.855995,-2.425999c0.017014,0.541 0.087013,1.351 0.145004,2.004002c0.408997,0 3.860001,0 5.145996,0c-0.177986,-0.889002 -0.545998,-2.596003 0.065002,-5.327002c0.322998,-1.438 1.230995,-5.571001 1.694,-7.851999c0.880997,-4.315001 -1.487,-7.365001 -7.555,-7.365001c-7.802002,0 -10.050003,5.608001 -10.414001,6.471999l5.622002,0l0,-0.000999l0.000008,0z" id="path23" fill="#828282"/>
   <path d="m176.119003,26.09c-0.182007,0.400999 -1.393021,2.091 -4.100006,2.091c-3.897995,0 -4.785004,-3.305 -4.694992,-4.211c2.080002,0 14.097,0 15.18399,0c0.087006,-0.370998 0.430008,-1.723 0.430008,-3.111c0,-4.802999 -3.255997,-9.195 -9.822998,-9.195c-6.005005,0 -10.822998,5.050001 -10.822998,11.047001c0,5.802 3.483978,9.918001 9.644989,9.918001c7.613007,0 9.663986,-5.963001 9.861008,-6.538002c-1.35701,-0.000999 -5.679001,-0.000999 -5.679001,-0.000999zm-2.951004,-9.873001c3.352005,0 4.632996,2.046001 4.496002,3.687c-1.925995,0 -7.654007,0 -9.587997,0c0.248001,-1.042 1.847,-3.687 5.091995,-3.687z" id="path25" fill="#828282"/>
  </g>
  <g id="g27">
   <path d="m12.267,2.864c0,-1.264 -0.774,-2.864 -4.027,-2.864c-1.335,0 -5.009,0 -5.009,0l-1.424,6.588c0,0 2.707,0 5.222,0c4.077,0 5.238,-1.93 5.238,-3.724z" id="path29" fill="#828282"/>
   <path d="m25.76,2.864c0,-1.264 -0.771999,-2.864 -4.024,-2.864c-1.336,0 -5.01,0 -5.01,0l-1.422999,6.587c0,0 2.706,0 5.218999,0c4.079,0.001 5.238001,-1.929 5.238001,-3.723z" id="path31" fill="#828282"/>
   <path d="m10.46,12.779c0,-1.264 -0.774,-2.868 -4.027,-2.868c-1.335,0 -5.009,0 -5.009,0l-1.424,6.592c0,0 2.707,0 5.22,0c4.078001,0 5.24,-1.935 5.24,-3.724z" id="path33" fill="#828282"/>
   <path d="m23.952999,12.779c0,-1.264 -0.775,-2.868 -4.025,-2.868c-1.337,0 -5.009,0 -5.009,0l-1.426,6.592c0,0 2.707001,0 5.222,0c4.079,0 5.237999,-1.935 5.237999,-3.724z" id="path35" fill="#828282"/>
   <path d="m38.07,8.758c0,-1.265 -0.775002,-2.868001 -4.025002,-2.868001c-1.336998,0 -5.008999,0 -5.008999,0l-1.425999,6.591c0,0 2.709,0 5.220001,0c4.078999,0 5.239998,-1.93 5.239998,-3.723z" id="path37" fill="#828282"/>
   <path d="m36.124001,19.080999c0,-1.264999 -0.772999,-2.864 -4.025002,-2.864c-1.334999,0 -5.008999,0 -5.008999,0l-1.424,6.588001c0,0 2.705,0 5.219999,0c4.078001,0 5.238001,-1.934999 5.238001,-3.724001z" id="path39" fill="#828282"/>
   <path d="m22.014,23.103001c0,-1.27 -0.771999,-2.873001 -4.021999,-2.873001c-1.338001,0 -5.012001,0 -5.012001,0l-1.424,6.591c0,0 2.707,0 5.219999,0c4.079,0.001001 5.238001,-1.928999 5.238001,-3.717999z" id="path41" fill="#828282"/>
  </g>
 </g>
</svg>