<svg width="174" height="59" xmlns="http://www.w3.org/2000/svg">
 <g>
  <path fill-rule="evenodd" clip-rule="evenodd" fill="#828282" d="m169.58099,13.79101l1.082,0c0.009,0.014 0.013,0.027 0.01801,0.041c0.17699,0.385 0.35399,0.77 0.517,1.159c0.177,0.436 0.334,0.87801 0.52499,1.30901c0.008,0.013 0.01401,0.027 0.01801,0.041c0.14,-0.31699 0.356,-0.828 0.498,-1.146c0.131,-0.29301 0.26199,-0.592 0.39299,-0.88702c0.052,-0.11298 0.06001,-0.13599 0.06001,-0.17699c0,-0.09901 -0.10101,-0.09901 -0.19,-0.09901l-0.397,0.01801l0.397,-0.258l1.45299,0l-0.10399,0.09998c-0.10501,0.095 -0.159,0.16301 -0.159,0.34901c0,0.063 0.00499,0.12601 0.01399,0.19398c0.026,0.28601 0.05,0.57001 0.07201,0.85601c0.03099,0.375 0.067,0.75099 0.13699,1.122c0.058,0.304 0.12199,0.413 0.33899,0.57499c-0.24001,0.04501 -0.40201,0.06802 -0.644,0.06802c-0.099,0 -0.27101,0 -0.429,-0.117c-0.18701,-0.14501 -0.213,-0.376 -0.24399,-0.788c-0.02702,-0.281 -0.05502,-0.562 -0.078,-0.84201c-0.019,-0.26698 -0.026,-0.53399 -0.05299,-0.80099l-0.00601,-0.054l-0.026,0.059c-0.159,0.343 -0.30399,0.69699 -0.45799,1.041c-0.35698,0.82399 -0.38399,0.87799 -0.45598,1.09999l0.04999,0.13601c-0.131,0.03199 -0.64699,0.203 -0.83899,0.276c-0.145,-0.403 -0.655,-1.71501 -1.06201,-2.611c-0.03999,0.37999 -0.077,0.76 -0.11299,1.14c-0.011,0.12699 -0.086,0.97399 -0.086,1.051c0,0.099 0.022,0.126 0.19899,0.145l0.39801,0.05899l-0.231,0.14101l-0.843,0l0.119,-0.14101c0.02299,-0.03199 0.04399,-0.05899 0.05899,-0.099c0.026,-0.07199 0.04001,-0.19999 0.05901,-0.37999c0.03101,-0.276 0.06801,-0.54801 0.101,-0.82401c0.01802,-0.172 0.10301,-1.014 0.125,-1.208c0.00601,-0.04601 0.009,-0.09499 0.009,-0.14101c0,-0.11799 -0.04401,-0.17599 -0.181,-0.17599c-0.063,0 -0.354,0.00799 -0.42,0.00799l0.377,-0.23899l0,0l-0.00002,0.00001z" id="svg_3"/>
  <path fill-rule="evenodd" clip-rule="evenodd" fill="#828282" d="m169.382,13.79101l-0.198,0.46101l-0.20399,0.091c0.013,-0.045 0.04999,-0.21301 0.04999,-0.23c0,-0.104 -0.12199,-0.10902 -0.24899,-0.10902l-0.62999,0.00501c-0.05499,1.765 -0.05499,1.918 -0.05499,2.158c0,0.127 0,0.231 0.009,0.38499c0.015,0.195 0.07799,0.236 0.28699,0.249l0.38301,0.041l-0.293,0.146l-1.509,0l0.101,-0.146c0.10001,-0.149 0.114,-0.17101 0.114,-0.271c0.00301,-0.10001 0,-0.56499 0,-0.66901c0,-0.19101 0,-0.38501 0.00301,-0.575c0.015,-0.389 0.037,-0.779 0.037,-1.16399c0,-0.064 -0.005,-0.136 -0.005,-0.153l-0.55199,0c-0.276,0.009 -0.28102,0.017 -0.43002,0.24299l-0.23997,0.09101l0.23997,-0.55199l3.14102,0l0,-0.00101l-0.00003,0.00002z" id="svg_4"/>
  <path fill-rule="evenodd" clip-rule="evenodd" fill="#828282" d="m163.521,39.62601c-0.636,0.348 -1.274,0.753 -1.911,1.043c-1.91301,0.86901 -3.88301,1.101 -5.62001,1.101c-1.85399,0 -4.75099,-0.116 -7.705,-2.25899c-4.11299,-2.89701 -5.909,-7.88001 -5.909,-12.22501c0,-8.98 7.3,-13.383 13.26801,-13.383c2.084,0 4.229,0.521 5.967,1.62201c2.89601,1.91199 3.649,4.403 4.05502,5.736l-13.614,5.50298l-4.46101,0.34901c1.44801,7.35799 6.43098,11.644 11.93501,11.644c2.95398,0 5.099,-1.042 7.06798,-2.027l-3.073,2.896l0,0zm-5.44499,-17.263c1.10002,-0.40601 1.67999,-0.75301 1.67999,-1.565c0,-2.31699 -2.60599,-4.98199 -5.73499,-4.98199c-2.31801,0 -6.662,1.79699 -6.662,8.05399c0,0.98499 0.11499,2.02699 0.17299,3.07l10.54401,-4.577l0,0z" id="svg_5"/>
  <path fill-rule="evenodd" clip-rule="evenodd" fill="#828282" d="m140.98399,40.90101l-10.255,0c1.33301,-1.737 1.565,-1.91201 1.565,-3.07l0,-9.443c0,-4.519 0.058,-10.95 0.231,-16.975c0.05901,-2.955 0.28999,-6.663 0.34799,-9.328l-4.51901,0l4.34602,-2.08501l8.28299,0c-1.79501,1.04301 -2.375,1.39101 -2.60501,3.41899c-0.46399,4.46 -0.52199,11.528 -0.52199,19.755l0,13.38301c0,2.25999 0.405,2.60699 2.31801,2.78099c0.98398,0.116 1.97,0.174 2.95398,0.28899l-2.144,1.27401l0,0l0.00002,0.00002z" id="svg_6"/>
  <path fill-rule="evenodd" clip-rule="evenodd" fill="#828282" d="m121.983,16.74201c1.33099,1.101 4.112,3.418 4.112,7.822c0,4.287 -2.43401,6.314 -4.866,8.227c-0.752,0.75301 -1.62201,1.564 -1.62201,2.839s0.87001,1.969 1.50601,2.49l2.086,1.622c2.54999,2.144 4.866,4.114 4.866,8.112c0,5.445 -5.272,10.94901 -15.237,10.94901c-8.4,0 -12.456,-3.998 -12.456,-8.28501c0,-2.086 1.043,-5.041 4.463,-7.068c3.591,-2.20099 8.458,-2.49 11.064,-2.664c-0.812,-1.044 -1.738,-2.144 -1.738,-3.93899c0,-0.986 0.28999,-1.56401 0.57999,-2.26001c-0.639,0.058 -1.27399,0.116 -1.854,0.116c-6.14101,0 -9.616,-4.57699 -9.616,-9.096c0,-2.66499 1.216,-5.61999 3.70699,-7.76299c3.303,-2.72301 7.242,-3.18601 10.37,-3.18601l11.93401,0l-3.707,2.085l-3.592,0l0,-0.001l0.00002,0zm-4.114,25.723c-0.464,-0.059 -0.75399,-0.059 -1.331,-0.059c-0.52099,0 -3.651,0.116 -6.085,0.928c-1.274,0.464 -4.982,1.854 -4.982,5.96799c0,4.112 3.998,7.065 10.197,7.065c5.562,0 8.517,-2.663 8.517,-6.255c0,-2.95399 -1.912,-4.51801 -6.31599,-7.647l0,0l-0.00001,0.00001zm1.68199,-11.006c1.33098,-1.333 1.44701,-3.188 1.44701,-4.23c0,-4.17101 -2.49101,-10.66001 -7.3,-10.66001c-1.50701,0 -3.12801,0.75301 -4.05601,1.91201c-0.98499,1.217 -1.27499,2.78099 -1.27499,4.28699c0,3.88101 2.25999,10.31301 7.242,10.31301c1.449,-0.00002 3.01299,-0.69701 3.94199,-1.62201l0,0l0,0.00002z" id="svg_7"/>
  <path fill-rule="evenodd" clip-rule="evenodd" fill="#828282" d="m86.063,41.65401c-9.21099,0 -14.136,-7.18301 -14.136,-13.67099c0,-7.58901 6.2,-14.07901 15.00401,-14.07901c8.51701,0 13.84799,6.66301 13.84799,13.672c0,6.837 -5.272,14.078 -14.716,14.078l0,0zm7.242,-4.692c1.391,-1.85399 1.738,-4.17199 1.738,-6.432c0,-5.098 -2.434,-14.831 -9.618,-14.831c-1.911,0 -3.82301,0.753 -5.214,1.97c-2.258,2.028 -2.665,4.577 -2.665,7.068c0,5.73499 2.839,15.17899 9.848,15.17899c2.26,0.00101 4.579,-1.1 5.911,-2.95399l0,0z" id="svg_8"/>
  <path fill-rule="evenodd" clip-rule="evenodd" fill="#828282" d="m55.242,41.65401c-9.212,0 -14.137,-7.18301 -14.137,-13.67099c0,-7.58901 6.199,-14.07901 15.00599,-14.07901c8.51601,0 13.845,6.66301 13.845,13.672c0.00101,6.837 -5.27,14.078 -14.714,14.078l0,0l0.00001,0zm7.241,-4.692c1.391,-1.85399 1.738,-4.17199 1.738,-6.432c0,-5.098 -2.433,-14.831 -9.616,-14.831c-1.912,0 -3.82401,0.753 -5.215,1.97c-2.259,2.028 -2.665,4.577 -2.665,7.068c0,5.73499 2.839,15.17899 9.849,15.17899c2.26,0.00101 4.577,-1.1 5.909,-2.95399l0,0z" id="svg_9"/>
  <path fill-rule="evenodd" clip-rule="evenodd" fill="#828282" d="m37.422,39.63201l-7.766,1.792c-3.151,0.489 -5.976,0.924 -8.962,0.924c-14.991,0 -20.694,-11.026 -20.694,-19.662c0,-10.537 8.093,-20.313 21.943,-20.313c2.933,0 5.758,0.43501 8.31,1.141c4.073,1.14101 5.975,2.553 7.169,3.369l-4.508,4.29l-1.9,0.435l1.358,-2.173c-1.847,-1.792 -5.216,-5.105 -11.623,-5.105c-8.583,0 -15.046,6.51801 -15.046,16.023c0,10.209 7.387,19.824 19.227,19.824c3.478,0 5.269,-0.70599 6.898,-1.35699l0,-8.745l-8.201,0.43501l4.345,-2.33501l11.515,0l-1.412,1.357c-0.38,0.326 -0.435,0.435 -0.544,0.869c-0.054,0.48901 -0.108,2.064 -0.108,2.60699l0,6.624l-0.001,0l0,-0.00001z" id="svg_10"/>
 </g>
</svg>