<svg width="800" height="135" xmlns="http://www.w3.org/2000/svg">
 <g>
  <title>Nokia</title>
  <polyline id="polyline7" points="38.519,133.175 0,133.175 0,2.181 66.62,2.181 143.047,99.975 143.047,2.181 181.567,2.181     181.567,133.175 116.298,133.175 38.519,33.711 38.519,133.175   " fill="#828282"/>
  <path fill="#828282" id="path9" d="m365.872009,92.672997c0,18.206001 -3.218994,24.483002 -8.550995,30.506004c-8.173004,8.964996 -20.059021,11.660004 -42.972015,11.660004l-65.770996,0c-22.91301,0 -34.813995,-2.695007 -42.979996,-11.660004c-5.324005,-6.022003 -8.55101,-12.300003 -8.55101,-30.506004l0,-50.498997c0,-18.205999 3.227005,-24.476 8.55101,-30.506c8.166992,-8.972 20.067993,-11.668 42.980988,-11.668l65.771011,0c22.912994,0 34.798981,2.696 42.971985,11.668c5.332001,6.03 8.550995,12.3 8.550995,30.506l0,50.498997m-53.143982,8.972c8.796997,0 11.898987,-0.514999 14.005981,-2.433998c1.97702,-1.793999 2.848022,-4.103996 2.848022,-11.797997l0,-39.987003c0,-7.691998 -0.871002,-9.988998 -2.848022,-11.789997c-2.105988,-1.925003 -5.208984,-2.434002 -14.005981,-2.434002l-62.53801,0c-8.796997,0 -11.898987,0.508999 -13.998993,2.434002c-1.983002,1.800999 -2.848999,4.098 -2.848999,11.789997l0,39.987003c0,7.693001 0.86499,10.003998 2.848999,11.797997c2.100006,1.918999 5.201996,2.433998 13.998993,2.433998l62.53801,0l0,0z"/>
  <path fill="#828282" id="path11" d="m421.848999,2.181l0,130.994003l-40.247009,0l0,-130.994003l40.247009,0m68.001007,0l53.136017,0l-71.712036,61.271999l80.881042,69.722004l-56.856018,0l-73.449005,-68.319l68,-62.675003z"/>
  <rect fill="#828282" id="rect13" y="2.181" x="559.578" height="130.994" width="40.264"/>
  <path fill="#828282" id="path15" d="m753.307983,133.175003l-11.907959,-22.82l-77.889038,0l-11.769958,22.818993l-44.469055,0l71.350037,-130.993996l50.033997,0l71.343994,130.995003l-46.692017,0m-75.810974,-51.270004l50.049011,0l-25.028015,-47.424999l-25.020996,47.424999z"/>
 </g>
</svg>