<?xml version="1.0" standalone="no"?>
<!DOCTYPE svg PUBLIC "-//W3C//DTD SVG 1.1//EN" "http://www.w3.org/Graphics/SVG/1.1/DTD/svg11.dtd" >
<svg xmlns="http://www.w3.org/2000/svg">
<defs>
<font id="Pusab" horiz-adv-x="1314" >
  <font-face 
    font-family="Pusab"
    font-weight="400"
    font-stretch="normal"
    units-per-em="2048"
    panose-1="2 0 5 6 0 0 0 2 0 4"
    ascent="1638"
    descent="-410"
    x-height="1149"
    cap-height="1319"
    bbox="40.9583 -453 2720 1796"
    underline-thickness="49"
    underline-position="-51"
    unicode-range="U+0020-U+FB02"
  />
<missing-glyph horiz-adv-x="849" 
d="M809 0h-768v1796h768v-1796zM168 1669v-1540h512v1540h-512z" />
    <glyph glyph-name="uniFB01" unicode="fi" horiz-adv-x="1775" 
d="M684 324v-107q0 -96 -20 -135q-39 -80 -213 -92q-28 -3 -117 0q-35 0 -131 10q-76 14 -113 61q-49 57 -49 502q0 426 35 492q52 98 430 98q225 0 412 -35q80 -15 116 -37q49 -37 49 -104q0 -45 -16 -88q-23 -53 -61 -53q-23 0 -88.5 10t-86.5 10q-90 4 -114 -12
q-33 -18 -33 -84q0 -74 90 -84q72 -8 154 -10q59 -4 59 -109q0 -94 -33 -119q-25 -10 -114 -10q-109 0 -133 -27q-23 -26 -23 -77zM1733 997l-9 -802q-3 -126 -61 -166q-47 -31 -176 -37h-53q-170 4 -246 69q-31 28 -37 265v272q0 160 -6 295q2 131 63 192q70 68 256 68
q43 0 99 -2q86 -2 129 -40t41 -114z" />
    <glyph glyph-name="uniFB02" unicode="fl" horiz-adv-x="2195" 
d="M684 324v-107q0 -96 -20 -135q-39 -80 -213 -92q-28 -3 -117 0q-35 0 -131 10q-76 14 -113 61q-49 57 -49 502q0 426 35 492q52 98 430 98q225 0 412 -35q80 -15 116 -37q49 -37 49 -104q0 -45 -16 -88q-23 -53 -61 -53q-23 0 -88.5 10t-86.5 10q-90 4 -114 -12
q-33 -18 -33 -84q0 -74 90 -84q72 -8 154 -10q59 -4 59 -109q0 -94 -33 -119q-25 -10 -114 -10q-109 0 -133 -27q-23 -26 -23 -77zM2077 301q78 0 77 -141q0 -61 -53 -97q-27 -18 -108 -36q-152 -35 -367 -35q-164 0 -217 4q-135 12 -201 65q-53 53 -51 521q0 123 -6 194
q0 293 135 348q61 27 352 27q143 0 146 -203v-129q-2 -100 -2 -311v-66q0 -27 12 -125q22 -28 111 -24q6 0 17 1t30.5 2t36.5 1q86 4 88 4z" />
    <glyph glyph-name=".notdef" horiz-adv-x="849" 
d="M809 0h-768v1796h768v-1796zM168 1669v-1540h512v1540h-512z" />
    <glyph glyph-name=".null" horiz-adv-x="0" 
 />
    <glyph glyph-name="nonmarkingreturn" horiz-adv-x="682" 
 />
    <glyph glyph-name="space" unicode=" " horiz-adv-x="960" 
 />
    <glyph glyph-name="exclam" unicode="!" horiz-adv-x="761" 
d="M598 399q2 -31 -56.5 -55.5t-172.5 -42.5q-47 -8 -95 -8q-115 0 -137 67q-96 289 -82 621q16 326 140 340q195 25 458 16q68 -2 68 -112q0 -106 -45 -279q-53 -205 -64 -280q-16 -161 -14 -267zM373 274q43 6 78 7q164 0 188 -129q4 -29 4 -39q0 -129 -203 -162
q-111 -18 -184 12q-92 40 -92 148q0 132 209 163z" />
    <glyph glyph-name="quotedbl" unicode="&#x22;" horiz-adv-x="870" 
d="M182 1092q-102 0 -114 47q-6 20 6 71q14 55 14 76q0 65 -31 141q-16 33 -16 58q0 88 164 112q33 4 53 5q143 0 143 -162q0 -100 -61 -248q-25 -61 -56.5 -80.5t-101.5 -19.5zM610 1092q-102 0 -114 47q-6 20 6 71q14 55 14 76q0 65 -31 141q-16 33 -16 58q0 88 164 112
q33 4 53 5q143 0 143 -162q0 -100 -61 -248q-25 -61 -56.5 -80.5t-101.5 -19.5z" />
    <glyph glyph-name="numbersign" unicode="#" horiz-adv-x="1488" 
d="M666 1262q10 -121 6 -349q0 -158 -8 -188q-12 -55 -76 -55h-72q-72 0 -117 45q-117 114 -166 153q-2 2 -6 2q-12 0 -12 -41v-43q0 -2 4 -51q4 -35 -14.5 -52t-57.5 -15l-41 2q-55 4 -57 80q-8 154 -8 262q4 182 6 207q23 119 131 114l74 -2q59 -4 108 -55l121 -133
q10 -10 15 -10q4 4 6 10l-6 125q-2 33 16 48t55 15h37q60 1 62 -69zM1448 1001q0 -158 -98.5 -251t-259.5 -93q-164 0 -256.5 90.5t-92.5 254t92.5 254t256.5 90.5q258 0 335 -216q23 -68 23 -129zM1114 848q45 8 51 104q4 72 -10 121q-18 78 -72 84q-55 0 -61 -102
q-8 -141 51 -195q21 -14 41 -12z" />
    <glyph glyph-name="dollar" unicode="$" horiz-adv-x="1361" 
d="M842 -18v-15q0 -125 -158 -125q-162 0 -162 119v16q-285 33 -448 177q-33 27 -33 82q0 31 8 61q45 125 107 129q49 0 100 -37q88 -63 137 -63q57 0 57.5 55t-94.5 104q-285 150 -293 373q-16 412 461 477l-2 66q-2 59 39 90t123 31q164 0 158 -133q-2 -29 -2 -50
q285 -33 448 -176q33 -27 33 -82q0 -31 -8 -61q-45 -125 -107 -129q-47 0 -100 37q-88 63 -137 63q-57 0 -57.5 -55t94.5 -105q285 -150 292 -372q17 -409 -456 -477z" />
    <glyph glyph-name="percent" unicode="%" horiz-adv-x="1718" 
d="M774 1114l4 -12q16 -53 19 -109l157 269q74 141 289 106q229 -39 154 -170l-242 -410q59 20 137 21q285 0 361 -258l4 -12q20 -61 20 -146q0 -184 -98 -295q-104 -115 -286.5 -114.5t-280.5 116.5q-86 102 -92 269l-166 -306q-59 -119 -281 -102q-246 6 -151 191l231 415
q-59 -20 -139 -20q-182 0 -281 117q-92 108 -92 294q0 184 92 295q100 119 281 119q282 0 360 -258zM1323 205q59 16 66 127q2 76 -17 149q-25 104 -88 107q-33 2 -52.5 -29t-23.5 -94q-2 -14 -2 -43q0 -143 68 -201q22 -20 49 -16zM444 768q59 16 66 127q2 76 -16 149
q-25 104 -88 107q-33 2 -52.5 -28.5t-23.5 -94.5q-2 -14 -2 -43q0 -141 67 -201q22 -20 49 -16z" />
    <glyph glyph-name="ampersand" unicode="&#x26;" horiz-adv-x="1499" 
d="M1307 834l8 -52q82 -4 92 -8q51 -18 51 -110q0 -88 -51 -113q-10 -4 -82 -6v-66q0 -160 -12 -235q-10 -51 -45 -86q-203 -158 -525 -172q-31 0 -59.5 -1t-42.5 -2t-18 -1q-582 18 -576 434q3 154 141 246q-138 92 -141 245q-6 412 576 434q143 4 307 -26q188 -35 295 -90
q29 -16 28 -62q0 -31 -8 -61q-20 -78 -41.5 -114t-46.5 -32q-127 25 -272 50q-37 6 -66 6q-137 0 -145 -113q-10 -92 100 -115q33 -6 115 -4q-2 53 2 72q16 41 92 53q23 4 115 6q27 2 80 2q72 0 88 -8q33 -14 41 -71zM899 543h-125q-51 0 -76.5 -23.5t-23.5 -70.5
q2 -66 30.5 -98t82 -27.5t104.5 28.5q14 6 14 23q0 131 -6 168z" />
    <glyph glyph-name="quotesingle" unicode="'" horiz-adv-x="442" 
d="M182 1092q-102 0 -114 47q-6 20 6 71q14 55 14 76q0 65 -31 141q-16 33 -16 58q0 88 164 112q33 4 53 5q143 0 143 -162q0 -100 -61 -248q-25 -61 -56.5 -80.5t-101.5 -19.5z" />
    <glyph glyph-name="parenleft" unicode="(" horiz-adv-x="649" 
d="M41 682q0 217 57 432q63 242 181 391q39 51 96 51q22 0 43 -6l129 -39q61 -18 61 -53q0 -14 -10 -31q-78 -133 -129 -360q-47 -217 -47 -385t47 -385q51 -227 129 -360q10 -16 10 -31q0 -35 -61 -53l-129 -39q-22 -6 -43 -7q-83 0 -160 148q-29 55 -90 217
q-84 221 -84 510z" />
    <glyph glyph-name="parenright" unicode=")" horiz-adv-x="649" 
d="M608 682q0 -217 -57 -432q-63 -242 -180 -391q-39 -51 -97 -52q-22 0 -43 7l-129 39q-61 18 -61 53q0 14 10 31q78 133 129 360q47 217 47 385t-47 385q-51 227 -129 360q-10 16 -10 31q0 35 61 53l129 39q22 6 43 6q83 0 160 -147q29 -53 90 -215q84 -221 84 -512z" />
    <glyph glyph-name="asterisk" unicode="*" horiz-adv-x="677" 
d="M629 1417q8 -18 8 -43q0 -68 -94 -76q-16 -2 -49 -2t-48 2q109 -68 119 -129q3 -40 -43 -73q-43 -33 -82 -17q-57 29 -84 152q-29 -125 -86 -152q-39 -18 -84 14.5t-41 75.5q6 61 119 129q-16 -2 -47 -2q-88 0 -122 31t-13 90q18 51 59 62q59 16 158 -74q-20 47 -29 92
q-25 119 86 119q88 0 88 -88q0 -51 -32 -123q98 86 157 74q46 -11 60 -62z" />
    <glyph glyph-name="plus" unicode="+" horiz-adv-x="1021" 
d="M668 209q2 -51 -37 -77t-119 -26q-162 0 -162 101v213h-207q-51 -2 -76.5 38t-25.5 117q0 82 24.5 123t75.5 39q55 -2 209 -2v211q-2 51 39 76t123 25t120 -27t36 -80q-2 -25 -2 -205q160 0 215 2q51 2 75.5 -39t24.5 -123q0 -156 -107 -155h-208q0 -176 2 -211z" />
    <glyph glyph-name="comma" unicode="," horiz-adv-x="497" 
d="M238 -172q-88 0 -108.5 33t1.5 86q33 72 10 82q-100 39 -100 170q0 188 215 188q201 0 201 -217q0 -104 -62 -242q-27 -61 -58 -80.5t-99 -19.5z" />
    <glyph glyph-name="hyphen" unicode="-" horiz-adv-x="819" 
d="M143 416q-51 -2 -76.5 38t-25.5 117q0 82 24.5 123t75.5 39q78 -2 268.5 -2t268.5 2q51 2 75.5 -39t24.5 -123q0 -78 -26.5 -117.5t-79.5 -37.5q-246 6 -529 0z" />
    <glyph glyph-name="period" unicode="." horiz-adv-x="460" 
d="M236 -37q-190 0 -193 184q-2 197 193 197q184 0 184 -197q0 -184 -184 -184z" />
    <glyph glyph-name="slash" unicode="/" horiz-adv-x="851" 
d="M473 63q-27 -115 -231 -100q-200 15 -172 148q133 563 321 1171q27 98 215 70q102 -14 146.5 -50t27.5 -92q-155 -510 -307 -1147z" />
    <glyph glyph-name="zero" unicode="0" horiz-adv-x="1343" 
d="M1264 918l6 -21q33 -104 33 -242q0 -305 -164 -491q-172 -193 -477 -193q-303 0 -467 195q-154 182 -154 493q0 307 154 492q166 197 467 197q473 0 602 -430zM713 342q100 25 108 211q6 131 -24 250q-43 174 -148 176q-115 4 -127 -205q-2 -25 -2 -69q0 -242 113 -336
q39 -33 80 -27z" />
    <glyph glyph-name="one" unicode="1" horiz-adv-x="1060" 
d="M705 1317h131q180 0 184 -176q0 -35 -2 -60q-2 -31 -2 -59l-15 -801q-4 -133 -61 -182q-53 -41 -188 -49q-31 -2 -80 -2q-197 2 -277 82q-27 27 -35 141q-6 72 -6 238v282q0 101 -12 117q-8 8 -18 8q-16 0 -69.5 -28.5t-74.5 -28.5q-53 0 -96 53q-43 55 -43 111
q0 57 82 118q172 129 301 203q18 10 61 21q64 12 220 12z" />
    <glyph glyph-name="two" unicode="2" horiz-adv-x="1325" 
d="M829 -12h-450q-141 0 -229.5 77.5t-88.5 210.5q0 170 121 297q272 291 273 340q0 72 -60 72q-51 0 -139 -63q-51 -37 -100 -37q-61 4 -107 129q-8 31 -8 61q0 55 33 82q84 76 202 119q195 72 386 63q590 -23 577 -434q-6 -233 -285 -358q-88 -39 -132 -74t-42 -67
q0 -35 33 -35q55 0 231 102q53 31 101 31q43 0 82 -25q57 -33 53 -209q-2 -188 -139 -247q-87 -35 -312 -35z" />
    <glyph glyph-name="three" unicode="3" 
d="M49 303q45 125 107 129q41 0 106 -37q86 -49 178 -53q84 -4 90 80q6 57 -18.5 86t-81.5 27q-129 -2 -176 22q-39 25 -39 105q0 86 51 106q55 18 164 12q55 -2 80 27t20 92q-8 76 -84 78q-98 -4 -184 -53q-66 -37 -106 -37q-61 4 -107 129q-8 31 -8 61q0 55 33 82
q83 71 202 117q203 74 416 65q582 -18 576 -434q-4 -158 -146 -248q141 -90 146 -247q6 -416 -576 -435q-213 -8 -416 66q-120 46 -202 117q-33 27 -33 82q0 30 8 61z" />
    <glyph glyph-name="four" unicode="4" horiz-adv-x="1497" 
d="M1395 571q41 4 53 -67q10 -37 6 -96q-4 -92 -29 -113q-27 -20 -122 -21q-47 0 -48 -45q0 -125 -56 -176t-195 -61q-12 0 -27 -2q-86 0 -154 2q-100 4 -176 76q-18 18 -35 165q-166 -2 -303 19q-221 37 -246 131q-23 100 -22 182q18 188 539 697q57 57 401 53q10 0 52 -2
t54 -2q182 0 187 -176q0 -14 -2 -59.5t-2 -57.5l-1 -19q-1 -18 -1 -38l-11 -359q0 -35 29 -35q23 0 109 4zM487 504q88 4 109 26q10 10 20 84l5 68q2 27 -3 88q-6 76 -26 76q-39 0 -158 -172q-63 -90 -63 -123q-1 -51 116 -47z" />
    <glyph glyph-name="five" unicode="5" horiz-adv-x="1275" 
d="M397 1311h426q172 0 236 32q25 12 43 13q31 0 45 -33q47 -111 47 -180q0 -74 -49 -107q-80 -57 -176 -61q-102 -4 -187 -4q-37 0 -53 -56l-6 -53q59 18 125 19q74 0 147 -21q240 -66 240 -346q0 -41 -2 -59q-33 -436 -571 -459q-186 -8 -386 63q-119 43 -202 119
q-33 27 -33 82q0 31 8 62q45 125 107 129q45 0 100 -37q113 -63 176 -64q57 0 66 51q4 29 4 39q0 100 -131 107q-272 12 -273 162q0 4 4 36q2 8 70 396q35 170 225 170z" />
    <glyph glyph-name="six" unicode="6" horiz-adv-x="1361" 
d="M1079 864q242 -88 242 -389q0 -504 -610 -504q-334 0 -499 163t-161 489q2 199 137 407q127 197 281 279q72 41 193 37q180 -6 315 -80q98 -55 33 -146q-82 -109 -125 -231q88 14 194 -25zM852 303q104 4 137 80q10 25 8 49q-2 55 -47 89t-106 32q-74 -2 -110 -34
t-34 -95q3 -58 50 -92q41 -31 102 -29z" />
    <glyph glyph-name="seven" unicode="7" horiz-adv-x="1312" 
d="M426 633q108 218 111 276q2 57 -41 70q-49 12 -86 -72q-29 -66 -111 -63q-168 6 -190 8q-68 4 -68 82q0 12 4 41q27 147 78 252q37 76 139 82q174 10 447 10h221q186 0 250 -35q92 -51 88 -182q-2 -113 -140 -488l-186 -505q-14 -70 -92 -95q-80 -27 -305 -26
q-160 0 -248 35q-49 20 -51 88q-2 143 180 522z" />
    <glyph glyph-name="eight" unicode="8" horiz-adv-x="1245" 
d="M622.5 -23q-581.5 0 -575.5 435q4 158 146 247q-131 94 -132 265q0 418 561.5 417.5t561.5 -417.5q0 -170 -131 -265q141 -90 145 -247q6 -435 -575.5 -435zM797 1016q-61 2 -103 -29q-18 -25 -18 -45q0 -29 33 -49l151 -102q78 39 82 96q2 25 -8 49q-33 76 -137 80z
M449 303q61 -2 102 29q18 25 18 45q0 29 -32 49l-177 119q-53 -57 -57 -113q-2 -25 8 -49q34 -76 138 -80z" />
    <glyph glyph-name="nine" unicode="9" horiz-adv-x="1351" 
d="M283 461q-242 82 -242 385q0 45 2 63q35 440 608 439q659 0 660 -652q0 -193 -131 -397q-133 -209 -273 -281q-88 -49 -211 -47q-182 -2 -311 82q-95 65 -31 148q78 98 123 229q-63 -12 -194 31zM510 1016q-104 -4 -137 -80q-10 -25 -8 -49q2 -57 51 -90q43 -35 102 -31
q74 2 110 33.5t34 95.5q-2 57 -45.5 90t-106.5 31z" />
    <glyph glyph-name="colon" unicode=":" horiz-adv-x="497" 
d="M256 754q-215 0 -215 204q0 215 215 216q201 0 201 -220q0 -200 -201 -200zM256 -31q-215 0 -215 205q0 213 215 213q201 0 201 -217q0 -201 -201 -201z" />
    <glyph glyph-name="semicolon" unicode=";" horiz-adv-x="497" 
d="M256 754q-215 0 -215 204q0 215 215 216q201 0 201 -220q0 -200 -201 -200zM238 -172q-88 0 -108.5 33t1.5 86q33 72 10 82q-100 39 -100 170q0 188 215 188q201 0 201 -217q0 -104 -62 -242q-27 -61 -58 -80.5t-99 -19.5z" />
    <glyph glyph-name="less" unicode="&#x3c;" horiz-adv-x="880" 
d="M610 473l178 -102q51 -27 52 -78q0 -33 -29 -86q-41 -74 -94 -74q-27 0 -60 21l-272 157l-274 158q-70 39 -70 106q0 65 68 105l553 319q29 16 53 17q51 0 98 -78q27 -45 27 -82q0 -49 -56 -78q-6 -2 -25.5 -13l-64.5 -38t-86 -49l-178 -103z" />
    <glyph glyph-name="equal" unicode="=" horiz-adv-x="759" 
d="M143 614q-51 -2 -76.5 30t-25.5 95q0 66 24.5 98.5t75.5 30.5q246 -4 477 0q51 2 76 -30.5t25 -98.5q0 -63 -26.5 -95t-80.5 -30q-207 4 -469 0zM143 285q-51 -2 -76.5 29.5t-25.5 95.5q0 66 24.5 98.5t75.5 30.5q246 -4 477 0q51 2 76 -31t25 -98q0 -63 -26.5 -95
t-80.5 -30q-207 4 -469 0z" />
    <glyph glyph-name="greater" unicode="&#x3e;" horiz-adv-x="880" 
d="M92 371l180 102l179 102l-177 103l-178 100q-55 31 -55 78q0 37 27 82q47 78 98 78q25 0 53 -17l553 -319q68 -37 68 -104.5t-68 -106.5l-276 -158l-273 -157q-33 -20 -59 -21q-53 0 -94 74q-29 53 -29 86q0 51 51 78z" />
    <glyph glyph-name="question" unicode="?" horiz-adv-x="1288" 
d="M721 401q4 -31 -51.5 -55t-173.5 -45q-47 -8 -95 -8q-111 0 -133 65q-23 80 -22 158q0 174 125 272q84 68 84 125q0 72 -62 72q-49 0 -137 -63q-51 -37 -100 -37q-61 4 -107 129q-8 31 -8 61q0 55 33 82q84 76 202 119q195 72 386 63q293 -10 437 -118.5t140 -315.5
q-6 -266 -285 -358q-244 -84 -237 -119v-2q0 -2 1 -5t2 -8.5t1 -11.5zM500 274q43 6 78 7q164 0 188 -129q4 -29 4 -39q0 -129 -203 -162q-111 -18 -184 12q-92 40 -92 148q0 132 209 163z" />
    <glyph glyph-name="at" unicode="@" horiz-adv-x="1650" 
d="M1399 223q40 22 74 13q49 -23 81 -113q6 -15 7 -31q0 -59 -99 -108q-248 -121 -530 -121q-395 0 -637 215q-254 223 -254 612q0 360 258 588q248 217 614 217q319 0 519 -211q178 -186 178 -444q0 -268 -156 -426q-158 -158 -422 -158h-47q-182 0 -309 117
q-125 119 -125 303q0 176 111 285q113 106 290 106q150 0 279 -86q27 -18 33 -18q8 0 8 12q-84 213 -334 213q-506 0 -506 -547q0 -254 174 -385q157 -117 418 -117q223 0 375 84zM965 549h8q133 0 133 123q0 115 -141 114q-59 0 -98.5 -33.5t-39.5 -88.5q0 -47 42.5 -81
t95.5 -34z" />
    <glyph glyph-name="A" unicode="A" horiz-adv-x="1515" 
d="M700 1333l62 2q129 4 217 -84q76 -76 231 -389q238 -477 258 -708q6 -63 -12 -90t-80 -48q-68 -23 -225 -26q-301 -2 -334 90q-10 37 -31 90q-25 49 -71 49h-135q-31 4 -109 0q-53 -4 -78 -94q-16 -68 -43.5 -93.5t-93.5 -29.5q-211 -8 -213 88q-3 120 117 430
q113 297 235 527q84 156 133 204q80 80 172 82zM571 662q-29 0 -90 -195q-6 -20 17.5 -29.5t77 -9.5t76 10.5t14.5 32.5q-72 191 -95 191z" />
    <glyph glyph-name="B" unicode="B" horiz-adv-x="1388" 
d="M1348 367q0 -217 -230 -312q-163 -68 -534 -67q-88 0 -230 14q-217 23 -260 66q-53 57 -53 585q0 532 53 586q41 41 152 55q163 25 338 25q477 0 639 -150q100 -92 100 -268q0 -160 -141 -252q166 -113 166 -282zM696 403q0 -77 56 -98q31 -12 125 -12q150 0 149 121
q0 102 -154 112q-90 4 -124 -14q-52 -27 -52 -109zM844 995q-84 0 -113 -14q-49 -22 -49 -92q0 -76 45 -96q27 -14 115 -15q162 0 162 111q0 106 -160 106z" />
    <glyph glyph-name="C" unicode="C" horiz-adv-x="1464" 
d="M1409 399q-163 -430 -645 -430q-342 0 -528 174q-195 178 -195 516q0 324 184 506q186 182 512 183q233 0 420 -111q227 -133 256 -367q10 -80 -70 -106q-16 -6 -145 -23q-96 -12 -111 70q-31 184 -180 164q-109 -14 -125 -227q-4 -82 -4 -89q0 -322 144 -321
q126 0 153 123q23 115 119 110q109 -4 143 -16q78 -29 78 -106q0 -22 -6 -50z" />
    <glyph glyph-name="D" unicode="D" horiz-adv-x="1361" 
d="M557 1321q500 0 686 -350q78 -145 78 -314q0 -399 -332 -573q-184 -96 -436 -94q-422 4 -477 82q-35 53 -35 577q0 526 35 592q43 80 481 80zM780 352q152 -6 207 178q16 59 17 127q0 248 -175 297q-28 9 -49 7q-37 -2 -45 -64q-12 -89 -12 -240q0 -141 10 -243
q6 -33 12 -41q8 -17 35 -21z" />
    <glyph glyph-name="E" unicode="E" horiz-adv-x="1294" 
d="M1159 348q68 9 86 -86q8 -39 8 -80q0 -125 -188 -162q-164 -33 -447 -32q-453 0 -522 88q-55 72 -55 403v166q0 492 39 563q20 43 80 66q34 12 104 24q121 20 328 21q273 0 473 -37q188 -35 188 -162q0 -162 -90 -162q-29 0 -100 11q-65 12 -98 12q-100 2 -131 -14
q-39 -20 -39 -86q0 -86 104 -97q96 -10 176 -12q72 -4 70 -121q0 -82 -39 -106q-29 -16 -133 -15q-119 2 -154 -32q-25 -25 -24 -70q0 -61 41 -86q31 -16 129 -14q71 0 194 20z" />
    <glyph glyph-name="F" unicode="F" horiz-adv-x="1275" 
d="M776 371q0 -76 2 -123q3 -104 -24 -154q-45 -88 -244 -104q-29 -4 -133 0q-121 4 -152 10q-84 14 -129 70q-55 68 -55 575q0 487 39 563q20 43 78 66q31 12 102 24q111 20 313 21q273 0 474 -37q188 -35 188 -162q0 -162 -90 -162q-29 0 -101 11q-65 12 -98 12
q-100 2 -131 -14q-39 -20 -39 -97q0 -84 105 -96q76 -8 176 -12q70 -2 69 -125q0 -106 -39 -133q-14 -10 -137 -15q-120 -3 -147 -30t-27 -88z" />
    <glyph glyph-name="G" unicode="G" horiz-adv-x="1458" 
d="M1298 588q104 -2 115 -129q0 -14 1 -39t2 -61.5t1 -67.5q0 -119 -2 -146l-4 -57q-9 -104 -135 -104q-154 0 -174 88l-8 34q-119 -135 -389 -135q-309 0 -488 189q-176 188 -176 499q0 324 184 506q188 182 510 183q535 0 666 -430q8 -25 8 -54q0 -74 -70 -100
q-41 -16 -145 -25q-89 -9 -111 74q-45 180 -174 162q-98 -16 -123 -225q-6 -53 -6 -91q0 -170 45 -251.5t136 -73.5q106 8 112 135q3 89 74 111q40 10 151 8z" />
    <glyph glyph-name="H" unicode="H" horiz-adv-x="1490" 
d="M1421 1182q3 -34 13 -203q14 -266 14 -498q2 -309 -14 -385q-8 -39 -33 -63q-47 -45 -332 -45q-139 0 -149 98q-6 53 -5 82l9 197q4 41 0 77q-4 47 -37 60q-25 6 -76 4q-63 -2 -96 -21q-34 -22 -43 -86q-2 -10 -2 -63v-115q0 -100 -21 -139q-27 -53 -114 -76
q-29 -8 -113 -14q-63 -4 -80 -2q-190 12 -254 71q-47 31 -47 598q0 553 53 606.5t305 53.5q156 0 199 -16q86 -37 90 -160q0 -46 -6 -160q-2 -23 -2 -53q0 -88 20 -111q25 -33 109 -28q88 2 106 30q12 16 9 109l-13 258q0 37 7 59q18 72 131 72q254 0 305 -33
q58 -36 67 -104z" />
    <glyph glyph-name="I" unicode="I" horiz-adv-x="755" 
d="M713 1143l-8 -920q-4 -143 -72 -190q-51 -35 -203 -45q-23 -4 -59 0q-197 6 -281 84q-34 34 -43 301v313q0 181 -6 338q2 152 72 217q84 78 293 78q51 0 114 -2q96 -2 145.5 -46t47.5 -128z" />
    <glyph glyph-name="J" unicode="J" horiz-adv-x="964" 
d="M735 1317q184 -6 187 -178q2 -35 -9 -441q-10 -315 -188 -503q-72 -76 -147 -115q-209 -111 -424 -111q-51 0 -82 35t-31 88q0 86 43 105q114 49 129 61q51 39 55 127q0 59 -2 139l-8 465q-4 244 31 273q55 53 334 57q59 0 112 -2z" />
    <glyph glyph-name="K" unicode="K" horiz-adv-x="1419" 
d="M422 1319h106q182 0 183 -174q0 -72 -2 -129.5t-2 -128.5q0 -51 22 -47q29 0 51 34l129 256q98 172 191 168q29 -2 141 -2q90 -12 90 -75q0 -100 -244 -467q-16 -20 11 -54q221 -283 272 -512q8 -33 8 -61q0 -115 -127 -127q-63 -8 -176 -10q-172 -6 -219 114
q-15 43 -55 142q-65 123 -92 123q-20 0 -21 -72q3 -175 -37 -227q-46 -65 -209 -80v0q-20 -1 -43 -2h-43q-211 0 -264 53q-51 53 -51 588q0 582 55 637q27 27 137 43q89 10 189 10z" />
    <glyph glyph-name="L" unicode="L" horiz-adv-x="1226" 
d="M1096 346q45 0 69 -53q20 -39 21 -111q-4 -72 -62 -108q-31 -23 -125 -45q-168 -41 -417 -41q-90 0 -269 8q-139 12 -211 76q-61 59 -59 596q0 233 8 399q10 166 139 221q74 31 406 29q96 2 137 -72q25 -49 29 -160q0 -270 -2 -501v-78q0 -31 12 -141q25 -34 129 -31
q25 0 96 6q59 6 99 6z" />
    <glyph glyph-name="M" unicode="M" horiz-adv-x="1595" 
d="M125 987q65 332 246 332h45q106 0 178 -90l121 -154q20 -23 35 -20q16 0 141 155q90 109 223 109h70q197 0 260 -332q77 -402 104 -829q6 -98 -65 -140q-57 -33 -164 -30l-131 2q-123 4 -172 41q-59 47 -74 157q-33 276 -47 277q-8 0 -18 -16l-123 -156
q-49 -61 -94.5 -61.5t-92.5 59.5l-118 153q-10 10 -15 11q-22 0 -37 -191q-3 -43 -12 -129q-10 -86 -57 -117q-41 -25 -135 -22q-100 4 -130 59q-23 43 -20 146q10 405 82 786z" />
    <glyph glyph-name="N" unicode="N" horiz-adv-x="1345" 
d="M1290 1176q14 -244 15 -695q0 -301 -17 -379q-25 -111 -153 -110h-142q-139 0 -235 90q-252 238 -332 305q-8 6 -14 6q-23 0 -23 -80q0 -115 8 -188q6 -70 -30.5 -103.5t-112.5 -31.5l-80 2q-108 3 -117 160q-16 324 -14 524q4 512 74 581q61 63 198 62l150 -2
q119 -2 217 -113q187 -212 240 -264q18 -23 28.5 -22.5t10.5 20.5q2 12 -9 250q-4 66 32 97.5t112 31.5h71q114 0 123 -141z" />
    <glyph glyph-name="O" unicode="O" horiz-adv-x="1495" 
d="M1454 655q0 -323 -197 -503q-195 -182 -520 -182.5t-512 180.5q-184 182 -184 505q0 328 184 508q186 182 512 183q537 0 682 -459q35 -115 35 -232zM786 350q94 20 105 207q8 121 -21 242q-41 164 -143 168q-111 4 -123 -205q-16 -281 103 -387q36 -34 79 -25z" />
    <glyph glyph-name="P" unicode="P" horiz-adv-x="1437" 
d="M1077 887q0 100 -92 106l-33 2q-83 6 -123 -12q-57 -25 -53 -96q6 -123 158 -113q143 9 143 113zM776 371q0 -76 2 -123q3 -104 -24 -154q-45 -88 -244 -104q-29 -4 -133 0q-121 4 -152 10q-84 14 -129 70q-55 68 -55 575q0 487 39 563q20 43 78 66q31 12 102 24
q111 20 313 21h185q639 0 639 -434q0 -143 -51 -221q-82 -131 -345 -168l-86 -13q-16 -2 -37 -6l-22 -4q-41 -10 -53 -22q-27 -27 -27 -80z" />
    <glyph glyph-name="Q" unicode="Q" horiz-adv-x="1495" 
d="M1454 657q0 -330 -207 -514q92 -71 86 -135q-3 -52 -92 -104q-41 -25 -72 -25q-43 0 -79 39q-59 61 -76 92q-117 -39 -277 -39q-326 0 -512 181q-184 180 -184 505.5t184 507.5q186 182 512 183q537 0 682 -459q35 -115 35 -232zM786 350q94 20 105 207q8 121 -21 242
q-41 164 -143 168q-111 4 -123 -205q-16 -281 103 -387q36 -34 79 -25z" />
    <glyph glyph-name="R" unicode="R" horiz-adv-x="1437" 
d="M731 248q3 -104 -24 -154q-45 -88 -244 -104q-3 -3 -86 0q-106 4 -152 12q-89 15 -129 68q-55 68 -55 575q0 492 39 563q35 61 127 80q162 31 336 31h184q639 0 639 -434q0 -231 -176 -328q156 -174 199 -369q8 -33 8 -61q0 -115 -127 -127q-63 -8 -176 -10
q-172 -6 -220 114l-55 142q-58 141 -80 141q-14 0 -10 -47q2 -14 2 -92zM1047 887q0 100 -93 106l-32 2q-83 6 -123 -12q-57 -25 -54 -96q6 -123 158 -113q144 9 144 113z" />
    <glyph glyph-name="S" unicode="S" horiz-adv-x="1361" 
d="M694 -31q-221 -8 -418 66q-119 43 -202 119q-33 27 -33 82q0 31 8 61q45 125 107 129q49 0 100 -37q88 -63 137 -63q57 0 57.5 55t-94.5 104q-285 150 -293 373q-18 469 605 490q221 8 417 -66q119 -43 203 -119q33 -27 33 -82q0 -31 -8 -61q-45 -125 -107 -129
q-47 0 -100 37q-88 63 -137 63q-57 0 -57.5 -55t94.5 -105q285 -150 292 -372q19 -470 -604 -490z" />
    <glyph glyph-name="T" unicode="T" horiz-adv-x="1390" 
d="M342 901q2 37 -18.5 54.5t-59.5 15.5l-102 -6q-59 -4 -90 40t-31 136q0 141 203 157q332 25 674 19q248 -2 364 -47q68 -29 68 -109q0 -154 -72 -188q-29 -14 -96 -15q-12 0 -50 2.5t-47 2.5q-49 2 -73.5 -24t-24.5 -79l-6 -637q-4 -143 -72 -190q-51 -35 -202 -45
q-23 -4 -60 0q-197 6 -280 84q-27 27 -35 145q-8 127 10 684z" />
    <glyph glyph-name="U" unicode="U" horiz-adv-x="1421" 
d="M1368 1214l10 -286q2 -33 0 -254q-4 -434 -272 -600q-168 -104 -389 -105q-323 0 -504 221q-170 211 -170 537v86q-2 4 2 188q6 297 195 308q16 0 45.5 2t76 3t87.5 3q236 6 268 -45q18 -29 16 -119q0 -31 -10 -242q-6 -133 -6 -241q2 -141 38 -209t107 -64q18 0 37 2
q129 12 129 207l-2 602q0 96 172 97q166 -1 170 -91z" />
    <glyph glyph-name="V" unicode="V" horiz-adv-x="1476" 
d="M1032 987l90 270q14 45 164 43t150 -90q0 -80 -56 -254q-70 -219 -176 -473q-109 -258 -160 -329q-121 -170 -296 -170q-113 0 -195 77q-49 49 -143 218q-152 276 -273 548q-96 221 -96 338q0 141 266 150q223 6 293 -27q61 -27 133 -201q8 -27 43 -112l37 -86l59 -121
q16 -16 33 -16q4 0 17 4q44 36 110 231z" />
    <glyph glyph-name="W" unicode="W" horiz-adv-x="1607" 
d="M1462 315q-71 -332 -245 -331h-27q-106 0 -178 90l-121 153q-18 23 -33 23q-20 -4 -143 -158q-90 -109 -223 -108h-50q-197 0 -260 331q-94 498 -125 830q-8 82 49.5 126t180.5 50l129 6q106 2 170 -39q76 -51 100 -362q6 -88 25 -88q8 0 20 16l121 156q49 61 94 61
t92 -59l119 -154q10 -10 14 -10q23 0 37 192q8 111 11 127q8 86 59 117q41 25 135 23q100 -4 129 -60q25 -39 21 -145q-9 -349 -101 -787z" />
    <glyph glyph-name="X" unicode="X" horiz-adv-x="1474" 
d="M684 182l-51 80l-133 -217q-23 -45 -146 -53q-29 0 -170 8q-135 0 -135 61q0 14 10 35q114 203 338 522q-176 262 -317 494q-39 59 -39 105q0 74 117 90q163 22 288 12q157 0 222 -43q55 -37 176 -225l133 215q18 45 143 53q10 0 170 -6q137 0 137 -62q0 -14 -10 -34
q-119 -213 -350 -519q184 -266 303 -469q63 -100 64 -157q0 -43 -37 -58q-84 -39 -412 -34q-106 -2 -168 43q-63 46 -133 159z" />
    <glyph glyph-name="Y" unicode="Y" horiz-adv-x="1456" 
d="M424 217l-6 176q-6 133 -33 166l-246 412q-98 172 -98 246q0 90 264 100q61 4 109 0q94 -2 143 -23q61 -25 111 -96l170 -235q14 -14 32 -15q14 0 25 8q47 51 100 150q90 170 101 178q27 20 84 25q236 8 235 -64q0 -127 -188 -444l-148 -246q-15 -28 -12 -141l6 -191
q4 -139 -72 -190q-51 -35 -202 -45q-23 -4 -60 0q-197 6 -280 84q-31 28 -35 145z" />
    <glyph glyph-name="Z" unicode="Z" horiz-adv-x="1294" 
d="M645 -10l-336 2q-268 23 -268 112v115q0 96 207 413.5t207 332.5q0 10 -11 14q-25 6 -53 6q-40 0 -110 -12q-61 -10 -111 -15q-76 -2 -102 52q-18 40 -19 123q4 121 129 157q111 31 471 29l336 -2q268 -23 268 -113v-114q0 -98 -206.5 -416t-206.5 -330q0 -10 10 -14
q25 -6 53 -6q40 0 111 12q61 10 110 14q76 2 103 -51q18 -40 18 -123q-4 -121 -129 -158q-111 -30 -471 -28z" />
    <glyph glyph-name="bracketleft" unicode="[" horiz-adv-x="722" 
d="M47 485v396q-6 464 197 602q111 72 241 69q61 -2 113 -2q83 0 80 -110q0 -74 -12 -154q-16 -35 -103 -35q-78 -12 -88 -90q-23 -236 -22 -479q0 -236 22 -479q8 -92 133 -92q45 0 58 -33q6 -18 12 -154q3 -111 -80 -110h-3h-13.5h-22.5t-32.5 -1t-41.5 -1
q-375 -6 -428 464q-10 107 -10 209z" />
    <glyph glyph-name="backslash" unicode="\" horiz-adv-x="841" 
d="M385 53q-201 672 -324 1204q-22 92 191 93q201 0 219 -80q113 -496 328 -1223q2 -4 2 -14q0 -63 -183 -64q-208 0 -233 84z" />
    <glyph glyph-name="bracketright" unicode="]" horiz-adv-x="724" 
d="M678 881l-2 -199q0 -76 2 -197q6 -463 -199 -604q-111 -72 -239 -69q-63 2 -115 2q-84 0 -78 110q-4 61 10 154q14 33 103 37q80 8 88 88q23 215 22 479q0 270 -22 479q-10 92 -133 92q-45 0 -58 33q-4 16 -10 154q-2 111 78 110q39 0 115 2q172 4 297 -120
q102 -102 131 -345q12 -110 10 -206z" />
    <glyph glyph-name="asciicircum" unicode="^" horiz-adv-x="854" 
d="M426 1360h2q-16 0 -49 -94q-6 -27 -35 -115q-23 -47 -82 -57q-29 -4 -104 -4q-117 0 -117 61q0 35 94 203l70 133q68 127 223 127q150 0 221 -127l51 -94q12 -22 19 -37q94 -156 94 -205q0 -61 -116.5 -61t-149.5 20q-37 23 -66 119l-12 43q-25 88 -43 88z" />
    <glyph glyph-name="underscore" unicode="_" horiz-adv-x="1021" 
d="M143 -305q-51 -2 -76.5 38t-25.5 117q0 82 24.5 123t75.5 39q371 -6 740 0q51 2 75.5 -39t24.5 -123q0 -78 -26.5 -117.5t-80.5 -37.5q-335 6 -731 0z" />
    <glyph glyph-name="grave" unicode="`" horiz-adv-x="477" 
d="M143 1540q-102 104 -98 127q0 35 117 35q72 0 96 -6q37 -8 72 -66l49 -90q57 -88 49 -113q-6 -25 -63 -24q-94 0 -127 27q-20 14 -50 53q-33 45 -45 57z" />
    <glyph glyph-name="a" unicode="a" horiz-adv-x="1335" 
d="M616 1163l54 2q111 3 190 -73q61 -57 201 -338q206 -415 227 -621q6 -55 -10 -78.5t-72 -42.5q-57 -18 -196 -22q-262 -4 -291 80l-29 82q-14 39 -59 38h-119q-27 2 -94 0q-49 -2 -70 -81q-16 -59 -35 -76q-20 -27 -84 -31q-184 -8 -186 78q-2 102 102 375
q104 274 205 458q71 132 117 179q69 69 149 71zM506 578q-27 0 -80 -170q-4 -12 10 -21q20 -14 72 -14q18 0 43 6q20 4 29.5 13t5.5 20q-62 166 -80 166z" />
    <glyph glyph-name="b" unicode="b" horiz-adv-x="1222" 
d="M1182 319q0 -188 -201 -272q-135 -57 -467 -57q-59 0 -201 12q-190 14 -225 57q-47 47 -47 510q0 461 47 512q35 35 131 49q158 23 295 23q420 0 559 -131q88 -82 88 -236q0 -138 -123 -221q144 -99 144 -246zM612 352q0 -65 50 -86q27 -10 110 -10q88 0 119 57
q10 20 10 49q0 90 -133 97q-77 3 -111 -13q-45 -20 -45 -94zM741 868q-71 0 -98 -12q-43 -22 -43 -80q0 -55 31 -80q23 -16 108 -16q88 0 129 47q12 18 13 49q-1 92 -140 92z" />
    <glyph glyph-name="c" unicode="c" horiz-adv-x="1288" 
d="M1221 457q20 -23 20 -66q0 -14 -4 -43q-143 -377 -565 -377q-297 0 -464 157t-167 447q0 283 162 442t444 159q211 0 369 -95q199 -117 223 -321q9 -68 -61 -92q-31 -10 -127 -21q-14 -2 -25 -2q-63 0 -72 62q-27 162 -157 143q-94 -12 -109 -199q-4 -70 -4 -76
q0 -281 125 -280q78 0 113 53q8 18 22 55t19 46q23 53 84 49q137 -4 174 -41z" />
    <glyph glyph-name="d" unicode="d" horiz-adv-x="1200" 
d="M492 1153q434 0 600 -305q68 -127 67 -275q0 -346 -291 -499q-162 -84 -381 -84q-367 0 -415 71q-31 46 -31 504q0 463 31 518q39 70 420 70zM686 307q131 -6 180 156q14 43 15 110q0 215 -152 258q-28 9 -43 7q-33 -2 -39 -56q-10 -92 -10 -209q0 -147 8 -211
q6 -51 41 -55z" />
    <glyph glyph-name="e" unicode="e" horiz-adv-x="1140" 
d="M1018 303q41 6 61.5 -29.5t20.5 -113.5q0 -111 -166 -142q-156 -29 -389 -28q-393 0 -455 76q-49 61 -49 354v143q0 426 35 492q51 98 446 98q227 0 412 -35q84 -16 115 -37q51 -33 51 -104q0 -45 -17 -88q-23 -53 -61 -53q-25 0 -90.5 10t-85.5 10q-88 2 -113 -12
q-33 -18 -33 -76q0 -66 95 -84q39 -4 149 -10q61 -2 62 -107q0 -70 -35 -92q-20 -14 -119 -12q-94 2 -133 -29q-18 -22 -19 -61q0 -53 35 -76q20 -12 111 -10q53 0 172 16z" />
    <glyph glyph-name="f" unicode="f" horiz-adv-x="1124" 
d="M684 324v-107q0 -96 -20 -135q-39 -80 -213 -92q-28 -3 -117 0q-35 0 -131 10q-76 14 -113 61q-49 57 -49 502q0 426 35 492q52 98 430 98q225 0 412 -35q80 -15 116 -37q49 -37 49 -104q0 -45 -16 -88q-23 -53 -61 -53q-23 0 -88.5 10t-86.5 10q-90 4 -114 -12
q-33 -18 -33 -84q0 -74 90 -84q72 -8 154 -10q59 -4 59 -109q0 -94 -33 -119q-25 -10 -114 -10q-109 0 -133 -27q-23 -26 -23 -77z" />
    <glyph glyph-name="g" unicode="g" horiz-adv-x="1282" 
d="M1139 512q98 -4 100 -111q0 -55 2 -147v-76q0 -25 -2 -35v-65q-10 -92 -121 -92q-141 0 -149 75l-8 33q-104 -121 -340 -121q-267 0 -424 166q-156 164 -156 436q0 281 162 441t444 160q465 0 582 -375q8 -25 8 -47q0 -61 -63 -86q-39 -14 -127 -23q-76 -8 -95 64
q-40 157 -153 141q-84 -12 -107 -197q-6 -55 -6 -78q0 -150 40 -220t118 -62q92 9 98 117q4 80 64 96q29 10 133 6z" />
    <glyph glyph-name="h" unicode="h" horiz-adv-x="1320" 
d="M1255 1030q0 -2 11 -176q14 -250 14 -434v-205q-6 -156 -41 -186q-45 -39 -291 -39q-120 0 -129 86q-4 70 -4 71l6 170q3 46 0 68q-3 61 -98 55q-59 -2 -84 -16q-31 -18 -37 -76q-2 -14 -2 -55v-100q0 -82 -16 -121q-29 -51 -123 -72q-61 -14 -146 -10q-166 8 -223 63
q-41 29 -41 522q-8 246 -10 314q3 138 61 196q70 68 263 68q133 0 172 -16q76 -33 79 -140q0 -41 -6 -139q-2 -20 -2 -45q0 -76 20.5 -100.5t92.5 -22.5q80 2 94 27q10 16 6 96l-10 223q0 117 119 117q223 0 266 -31q49 -26 59 -92z" />
    <glyph glyph-name="i" unicode="i" horiz-adv-x="671" 
d="M629 997l-8 -802q-3 -120 -62 -166q-45 -33 -176 -39h-53q-172 4 -246 71q-31 28 -37 265v272q0 154 -6 295q2 131 63 192q72 68 256 68q43 0 99 -2q86 -2 129 -40t41 -114z" />
    <glyph glyph-name="j" unicode="j" horiz-adv-x="851" 
d="M647 1151q158 -6 162 -158q2 -61 -6 -383q-6 -272 -164 -442q-55 -58 -129 -98q-186 -98 -371 -99q-43 0 -70.5 32t-27.5 77q0 76 37 90q100 45 112 55q46 34 50 111q0 51 -2 121q-2 229 -7 407q-2 211 25 236q53 51 293 53q51 0 98 -2z" />
    <glyph glyph-name="k" unicode="k" horiz-adv-x="1249" 
d="M375 1153h92q160 0 160 -154q0 -61 -2 -112t-2 -113q0 -23 5 -33t15 -8q20 0 43 29q102 178 141 266q49 111 140 107l123 -5q78 -10 77 -65q0 -86 -213 -408q-14 -14 11 -45q193 -246 237 -446q6 -28 6 -55q0 -101 -110 -111q-92 -8 -154 -10q-150 -6 -190 102
q-15 34 -49 123q-57 106 -82 107q-16 0 -17 -64q2 -154 -31 -199q-39 -53 -184 -69h-76q-123 0 -186 20q-29 12 -41 25q-47 47 -47 514q0 508 49 555q41 49 285 49z" />
    <glyph glyph-name="l" unicode="l" horiz-adv-x="1089" 
d="M971 301q78 0 78 -141q0 -61 -54 -97q-29 -16 -108 -36q-150 -37 -367 -37q-164 0 -217 4q-137 12 -201 67q-51 51 -51 521l-6 194q-3 117 25 209q33 104 110 139q61 27 352 27q143 0 146 -203v-129q-2 -100 -2 -311v-66q0 -27 12 -125q22 -28 111 -24q6 0 17 1t30.5 2
t36.5 1q86 4 88 4z" />
    <glyph glyph-name="m" unicode="m" horiz-adv-x="1409" 
d="M113 862q55 291 215 291h41q92 0 153 -80q121 -154 137 -153q31 0 72 53l28.5 47t22.5 37q78 96 195 96h63q174 0 226 -291q68 -366 92 -725q4 -74 -45 -110.5t-156 -36.5h-117q-100 0 -148 39t-67 137q-8 35 -16 164q-6 76 -23 76q-4 0 -122 -150q-43 -53 -84 -53
q-39 0 -78 51l-105 135q-6 8 -12 8q-22 0 -43 -282q-8 -121 -168 -119q-86 2 -113 51q-23 37 -18 127q11 369 70 688z" />
    <glyph glyph-name="n" unicode="n" horiz-adv-x="1185" 
d="M1133 1026q12 -207 12 -606q0 -270 -15 -330q-10 -41 -28 -57q-47 -41 -107 -41h-123q-123 0 -204 80q-207 201 -289 266q-10 6 -14 6q-18 0 -19 -70v-75q0 -31 6 -90q6 -61 -26.5 -91t-98.5 -28l-69 2q-92 2 -103 141q-16 256 -12 457q2 442 66 508q55 58 172 55l131 -2
q100 -2 188 -100l211 -232q18 -18 24.5 -18t10.5 16q0 37 -8 219q-2 57 29.5 86t95.5 29h63q99 0 107 -125z" />
    <glyph glyph-name="o" unicode="o" 
d="M1274 571q0 -281 -172 -440q-169 -160 -455 -160q-283 0 -444.5 159t-161.5 441q0 285 160.5 444t445.5 159q442 0 592 -377q35 -124 35 -226zM692 305q82 23 90 182q6 111 -16 209q-33 141 -125 148q-96 6 -109 -178q-2 -23 -2 -62q0 -186 91 -276q30 -33 71 -23z" />
    <glyph glyph-name="p" unicode="p" horiz-adv-x="1265" 
d="M946 774q0 86 -82 92l-26 2q-68 6 -107 -10q-53 -23 -47 -84q0 -106 137 -98q125 8 125 98zM684 324v-107q0 -96 -20 -135q-39 -80 -213 -92q-28 -3 -117 0q-35 0 -131 10q-76 14 -113 61q-49 57 -49 502q0 426 35 492q52 98 430 98h160q559 0 559 -381q0 -164 -90 -244
q-82 -72 -254 -96l-76 -10q-47 -8 -51 -8q-39 -10 -47 -21q-23 -26 -23 -69z" />
    <glyph glyph-name="q" unicode="q" 
d="M1274 573q0 -270 -178 -448q77 -68 73 -117q-3 -46 -79 -92q-33 -20 -64 -20q-39 0 -70 32q-55 61 -65 80q-111 -35 -244 -35q-283 0 -444.5 159t-161.5 441q0 285 160.5 444t445.5 159q442 0 592 -377q35 -124 35 -226zM692 305q82 23 90 182q6 111 -16 209
q-33 141 -125 148q-96 6 -109 -178q-2 -23 -2 -62q0 -186 91 -276q30 -33 71 -23z" />
    <glyph glyph-name="r" unicode="r" horiz-adv-x="1265" 
d="M643 297v-80q0 -96 -20 -135q-39 -76 -213 -92q-20 -2 -76 0q-106 4 -131 10q-76 14 -113 61q-49 57 -49 502q0 426 35 492q27 53 108 69q162 29 295 29h162q557 0 557 -381q0 -106 -33 -170q-33 -68 -123 -115q139 -158 177 -321q6 -27 6 -53q0 -100 -113 -113
q-59 -6 -151 -10q-150 -6 -191 102l-51 123q-51 123 -70 123q-6 0 -6 -41zM918 774q0 86 -78 92l-31 2q-76 4 -104 -10q-51 -20 -50 -84q6 -106 138 -98q125 8 125 98z" />
    <glyph glyph-name="s" unicode="s" horiz-adv-x="1202" 
d="M614 -29q-332 -10 -542 162q-31 25 -31 72q0 29 8 53q43 111 94 113q41 0 88 -31q76 -55 121 -55q49 0 49 49q0 47 -84 90q-246 127 -256 326q-8 205 124 310t405 116q197 6 366 -58q106 -43 177 -102q29 -25 28 -72q0 -27 -8 -53q-39 -111 -92 -115q-37 0 -88 35
q-76 55 -119 55q-51 0 -51 -51q0 -47 82 -90q250 -129 256 -324q8 -207 -124.5 -314.5t-402.5 -115.5z" />
    <glyph glyph-name="t" unicode="t" horiz-adv-x="1224" 
d="M305 786q3 65 -67 62l-91 -6q-53 -4 -79.5 33.5t-26.5 119.5q0 123 178 140q291 23 588 16q217 -4 317 -43q59 -23 60 -94q0 -133 -64 -166q-25 -12 -82 -12q-12 0 -44.5 2t-41.5 2q-43 2 -64.5 -20.5t-21.5 -67.5l-4 -557q0 -123 -63 -166q-47 -33 -176 -39h-52
q-178 4 -245 71q-25 25 -31 127q-8 117 10 598z" />
    <glyph glyph-name="u" unicode="u" horiz-adv-x="1249" 
d="M1206 811q4 -47 0 -223q-4 -201 -82 -355q-63 -129 -209 -200q-125 -61 -286 -62q-281 0 -439 195q-147 180 -149 467v76q0 70 2 165q2 258 170 269q111 6 182 8q201 4 234 -41q16 -25 14 -102q0 -82 -8 -211q-6 -133 -6 -213q2 -236 127 -236h32q113 12 113 180l-2 527
q0 84 150 84q145 0 149 -78q0 -12 3 -99.5z" />
    <glyph glyph-name="v" unicode="v" horiz-adv-x="1298" 
d="M985 1098q14 39 143 37q129 -4 129 -78q0 -70 -47 -223q-58 -190 -153 -412q-94 -223 -139 -289q-102 -147 -261 -147q-100 0 -170 67q-43 41 -125 189q-104 186 -237 481q-84 190 -84 295q0 121 231 131q193 6 256 -25q55 -29 117 -174q2 -8 16.5 -42t22.5 -58l31 -74
q53 -121 80 -121q6 0 14 4q40 34 98 203z" />
    <glyph glyph-name="w" unicode="w" horiz-adv-x="1413" 
d="M1282 276q-61 -291 -215 -290h-23q-96 0 -155 77l-105 136q-14 20 -28 20q-12 -4 -125 -139q-76 -94 -195 -94h-45q-170 0 -225 290q-84 434 -111 723q-8 70 42 109t159 45l113 6q92 4 147 -35q66 -45 88 -315q6 -78 23 -78q2 0 123 152q43 53 84 53q39 0 77 -51
l105 -135q6 -10 12 -11q18 2 33 168q0 10 3 47t5 64q8 76 53 102q41 23 119 21q86 -2 113 -51q18 -39 16 -129q-8 -298 -88 -685z" />
    <glyph glyph-name="x" unicode="x" horiz-adv-x="1298" 
d="M602 160l-45 69l-115 -190q-20 -39 -127 -45q-16 -4 -149 6q-119 6 -119 55q0 16 8 31q82 152 299 453q-164 240 -280 432q-33 51 -33 92q0 66 100 80q121 8 252 8q139 0 193 -37q57 -41 155 -199l115 189q14 37 125 47q10 2 149 -4q121 -6 121 -55q0 -16 -8 -31
q-94 -174 -307 -453q156 -227 264 -401q57 -88 57 -139q0 -35 -32 -50q-77 -34 -375 -30q-80 -4 -131 33t-117 139z" />
    <glyph glyph-name="y" unicode="y" horiz-adv-x="1280" 
d="M377 188q0 51 -6 156q-2 104 -29 145q-74 113 -215 359q-86 151 -86 215q0 78 231 88q53 4 95 0q80 -2 125 -21q49 -23 133 -133l112 -157q16 -12 28.5 -12.5t20.5 6.5q45 51 88 131q76 147 89 155q18 18 73 23q203 9 203 -56q0 -55 -45 -159q-34 -83 -246 -443
q-15 -28 -12 -123l6 -167q3 -120 -61 -166q-47 -33 -179 -39h-53q-104 2 -194 37q-49 25 -66 63q-9 24 -12 98z" />
    <glyph glyph-name="z" unicode="z" horiz-adv-x="1140" 
d="M569 -10q-238 2 -407 18q-121 12 -121 84v98q0 88 180 362.5t180 289.5q0 10 -8 12q-22 6 -49 6q-29 0 -96 -10l-94 -14q-53 -4 -80 33.5t-27 119.5q0 102 115 137q109 29 411 27q240 -3 406 -18q121 -12 121 -84v-99q0 -84 -182 -362q-180 -274 -181 -291q0 -6 11 -10
q22 -6 49 -6t98 10q65 9 92 12q66 4 90 -45q16 -37 17 -106q-4 -129 -217 -160q-60 -6 -308 -4z" />
    <glyph glyph-name="braceleft" unicode="{" horiz-adv-x="667" 
d="M623 29q0 -53 2 -103q4 -102 -80 -112q-71 -9 -117 -13q-186 -14 -295 131q-74 100 -70 258q2 100 52 291q18 66 2 111q-16 43 -76 72v34q61 29 76 74q14 39 -4 125q-31 135 -31 137q-12 63 -16 140q-4 182 89 284.5t271 100.5q55 0 119 -9q80 -10 80 -114
q0 -68 -13 -150q-16 -35 -102 -35q-82 -12 -88 -90q-4 -70 4 -129q16 -123 18 -125q10 -143 -90 -225q98 -88 90 -225q-4 -4 -18 -127q-8 -59 -4 -127q8 -92 133 -92q66 0 68 -82z" />
    <glyph glyph-name="bar" unicode="|" horiz-adv-x="409" 
d="M365 -37q2 -63 -37 -94t-121 -31q-84 0 -124 30t-38 89q20 721 0 1442q-2 59 39 90t123 31t121 -34t37 -100q-20 -690 0 -1423z" />
    <glyph glyph-name="braceright" unicode="}" horiz-adv-x="665" 
d="M111 111q123 0 133 92q4 68 -4 127l-17 127q-12 137 88 225q-100 82 -88 225q0 4 2 21.5t6.5 45t8.5 58.5q8 59 4 129q-6 78 -88 90q-34 -3 -86 13q-23 18 -25 82q-2 31 -2 90q-2 104 78 114q63 8 121 9q176 2 269 -101.5t91 -283.5q-4 -111 -51 -291q-18 -66 -2 -111
q14 -45 76 -74v-34q-59 -29 -76 -72t4 -127q4 -14 33 -129q12 -55 16 -146q4 -139 -59 -243q-70 -119 -199 -142q-41 -8 -106 -4q-46 3 -117 13q-82 10 -78 112q0 53 2 103q3 82 66 82z" />
    <glyph glyph-name="asciitilde" unicode="~" horiz-adv-x="1169" 
d="M1128 1505q0 -39 -22 -139q-27 -117 -117 -192.5t-207 -75.5q-145 0 -245 88l-56 53q-59 55 -73 53q-2 0 -7.5 -1t-7.5 -3q-46 -3 -49 -98q-3 -77 -43 -92q-18 -9 -55 -6q-84 4 -121 14q-80 23 -82 76q-2 23 2 51l21 88q49 211 245 256q76 18 144 6q102 -18 182 -84
l57 -51q47 -55 72 -55h12q28 9 37 43l10 61q2 12 11 53q18 49 92 47q190 -2 200 -92z" />
    <glyph glyph-name="exclamdown" unicode="&#xa1;" horiz-adv-x="761" 
d="M164 743q-2 31 56.5 55.5t172.5 43.5q47 8 94 8q115 0 138 -68q96 -289 82 -618q-16 -328 -140 -342q-195 -25 -458 -17q-68 2 -68 113q0 106 45 279q53 207 64 282q16 160 14 264zM389 868q-43 -6 -78 -6q-164 0 -188 129q-4 29 -4 39q0 129 203 162q111 18 184 -12
q92 -40 92 -148q0 -133 -209 -164z" />
    <glyph glyph-name="cent" unicode="&#xa2;" horiz-adv-x="1464" 
d="M1409 399q-141 -373 -522 -422q2 -4 2 -12q2 -63 -37 -94t-121 -31q-162 0 -162 119v27q-262 47 -399 229q-129 174 -129 444.5t129 444.5q137 186 399 229v68q0 121 162 121q82 0 121 -34t37 -99l-2 -54q144 -25 270 -98q227 -133 256 -367q10 -80 -70 -106
q-16 -6 -145 -23q-96 -12 -111 70q-31 184 -180 164q-109 -14 -125 -227q-4 -82 -4 -89q0 -322 144 -321q126 0 153 123q23 115 119 110q109 -4 143 -16q78 -29 78 -106q0 -22 -6 -50z" />
    <glyph glyph-name="sterling" unicode="&#xa3;" horiz-adv-x="1355" 
d="M1118 438h-203q-18 0 -18 -12q-2 -12 -2 -34.5t6 -35.5q27 -39 88 -32q131 12 225 32q53 10 80 -59q20 -47 20.5 -114.5t-61.5 -108.5q-35 -23 -125 -45q-176 -41 -417 -41q-178 0 -248 4q-178 16 -236 76q-59 66 -59 241q0 49 8 125q0 4 -4 4h-59q-72 0 -70 137
q3 154 74 154h80q29 0 34 21q133 459 297 538q115 55 346 55q199 0 232 -6q139 -29 125 -147q-10 -98 -38 -144.5t-71 -37.5l-49 8q-20 4 -40.5 -24.5t-41 -89t-43.5 -154.5q-2 -20 10 -21h164q74 0 70 -152q-2 -137 -74 -137z" />
    <glyph glyph-name="currency" unicode="&#xa4;" horiz-adv-x="854" 
d="M641 575.5q0 215.5 -215 215.5t-215 -215.5t215 -215.5t215 215.5zM426 268q-121 0 -190 45l-95 -94q-14 -14 -26 -14q-18 0 -37 20q-35 37 -8 64l94 94q-45 72 -45 192.5t45 192.5l-94 94q-29 27 8 64q18 18 34.5 18t30.5 -14l93 -92q70 45 190 45q117 0 192 -47l97 96
q28 28 61 -6q20 -20 20.5 -37t-16.5 -29l-94 -94q47 -72 47 -191q0 -117 -47 -192l96 -94q31 -29 -4 -64q-18 -18 -37 -18q-14 0 -123 106q-71 -45 -192 -45z" />
    <glyph glyph-name="yen" unicode="&#xa5;" horiz-adv-x="1456" 
d="M416 410h-113q-41 0 -41 49t39 49h105q-6 35 -21 51l-246 412q-98 172 -98 246q0 90 264 100q61 4 109 0q94 -2 143 -23q61 -25 111 -96l170 -235q14 -14 32 -15q14 0 25 8q47 51 100 150q90 170 101 178q27 20 84 25q236 8 235 -64q0 -127 -186 -442l-150 -248
q-10 -16 -12 -47h88q39 0 39 -49t-43 -49h-84l2 -105h86q39 0 39 -49q0 -52 -43 -49h-78q-6 -129 -78 -178q-59 -41 -196 -41h-60q-197 0 -280 84q-23 18 -35 135h-121q-41 0 -41 49t39 49h121q-3 59 -6 105z" />
    <glyph glyph-name="brokenbar" unicode="&#xa6;" horiz-adv-x="403" 
d="M43 473q-2 51 38 76.5t118 25.5q82 0 122.5 -24.5t38.5 -75.5q-2 -78 -2 -268.5t2 -267.5q2 -51 -38.5 -76t-122.5 -25q-78 0 -118 26.5t-38 80.5q6 245 0 528zM43 1417q-2 51 38 77t118 26q82 0 122.5 -25t38.5 -76q-2 -78 -2 -268t2 -268q2 -51 -38.5 -76t-122.5 -25
q-78 0 -118 27t-38 80q6 245 0 528z" />
    <glyph glyph-name="section" unicode="&#xa7;" horiz-adv-x="1656" 
d="M74 1004q-33 20 -4 63q29 41 59 18q16 -10 94 -67q16 59 41 98q-43 27 -69 49q-33 27 -9 68q14 27 35 27q12 0 105 -68q150 143 485 156q219 8 418 -66q117 -43 203 -119q33 -27 32 -82q0 -31 -8 -61q-45 -125 -106 -129q-47 0 -101 37q-88 63 -137 63q-57 0 -57 -55
t94 -105q293 -152 293 -372v-47l141 -99q33 -20 4 -61q-18 -27 -37 -27q-10 0 -125 78q-12 -55 -39 -98l82 -58q31 -20 2 -61q-18 -27 -36 -27q-8 0 -25 11l-82 57q-152 -145 -489 -158q-219 -8 -418 66q-119 43 -203 119q-33 27 -33 79q0 27 11 64q40 126 104 129
q49 0 100 -37q88 -63 138 -63q57 0 57 55t-94 104q-283 147 -293 373q-4 35 0 51z" />
    <glyph glyph-name="dieresis" unicode="&#xa8;" horiz-adv-x="735" 
d="M184 1403q-143 0 -143 137q0 141 143 141q133 0 133 -145q0 -133 -133 -133zM561 1403q-143 0 -143 137q0 141 143 141q133 0 133 -145q0 -133 -133 -133z" />
    <glyph glyph-name="copyright" unicode="&#xa9;" horiz-adv-x="1458" 
d="M727 1346q301 0 495.5 -195t194.5 -496q0 -299 -196 -493q-193 -193 -494 -193t-493.5 192.5t-192.5 493.5t192 494q193 197 494 197zM727 1155q-217 0 -360 -139q-139 -139 -139.5 -358.5t139.5 -358.5q143 -139 360 -139q219 0 358 139q141 139 141.5 358.5t-139 358.5
t-360.5 139zM1069 528q-82 -215 -324 -215q-172 0 -266 89.5t-94 256.5q0 164 92 254.5t256 90.5q121 0 217 -60q104 -63 121 -180q2 -39 -35 -53q-18 -8 -73 -11q-45 -8 -56 35q-14 92 -90 82q-55 -10 -61 -115q-2 -23 -2 -43q0 -111 37 -145q16 -16 34 -16q51 0 76 57
q25 59 60 59q61 -2 83 -12q34 -19 25 -74z" />
    <glyph glyph-name="ordfeminine" unicode="&#xaa;" horiz-adv-x="1144" 
d="M143 -4q-51 -2 -76.5 38t-25.5 118q0 82 24.5 122.5t75.5 38.5q432 -6 863 0q51 2 75.5 -39t24.5 -122q0 -78 -26.5 -118t-80.5 -38q-390 9 -854 0zM539 1333l43 2q88 4 151 -59q55 -53 164 -272q164 -330 180 -496q4 -43 -9 -62.5t-56 -33.5q-49 -14 -158 -19
q-213 -4 -233 64q-8 31 -21 63q-18 35 -51 35h-170q-40 -3 -55 -68q-12 -49 -31 -66.5t-66 -19.5q-147 -9 -147 62q0 45 8 78q16 78 72 223q77 200 166 369q61 113 92 143q55 55 121 57zM449 864q-20 0 -64 -137q-4 -10 8 -14q18 -12 60 -13q71 0 61 31q-49 133 -65 133z
" />
    <glyph glyph-name="guillemotleft" unicode="&#xab;" horiz-adv-x="1355" 
d="M705 272q31 -31 30 -65q0 -45 -51 -96q-49 -49 -94 -50q-35 0 -70 35l-446 447q-33 33 -33 76t31 73l452 453q31 31 66 31q45 0 94 -50q51 -49 51 -94q0 -37 -37 -71l-342 -343zM1284 272q31 -31 31 -65q0 -45 -51 -96q-49 -49 -95 -50q-35 0 -69 35l-447 447
q-33 33 -32.5 76t30.5 73l453 453q31 31 65 31q45 0 95 -50q51 -49 51 -94q0 -37 -37 -71l-342 -343z" />
    <glyph glyph-name="logicalnot" unicode="&#xac;" horiz-adv-x="1210" 
d="M852 418h-709q-51 -2 -76.5 38t-25.5 117q0 82 24.5 123t75.5 39q473 -6 926 0q51 2 75.5 -32.5t24.5 -106.5v-383q2 -27 -36.5 -39t-118.5 -12q-84 0 -124 24.5t-38 75.5q2 35 2 156z" />
    <glyph glyph-name="registered" unicode="&#xae;" horiz-adv-x="1458" 
d="M727 1346q301 0 495.5 -195t194.5 -496q0 -299 -196 -493q-193 -193 -494 -193t-493.5 192.5t-192.5 493.5t192 494q193 197 494 197zM727 1155q-217 0 -360 -139q-139 -139 -139.5 -358.5t139.5 -358.5q143 -139 360 -139q219 0 358 139q141 139 141.5 358.5t-139 358.5
t-360.5 139zM731 451q2 -49 -12 -76q-29 -53 -123 -53h-43q-104 0 -139 40q-29 35 -29 287q0 244 21 283q14 27 88 45q45 10 143 10h92q319 0 320 -217q0 -121 -88 -164q102 -119 102 -215q0 -61 -64 -63q-23 -4 -88 -6q-86 -4 -108 57l-29 72q-27 70 -41 69q-8 0 -4 -22
q0 -20 2 -47zM889 770q0 47 -47 53l-17 2q-40 3 -61 -6q-29 -12 -27 -49q3 -58 80 -55q72 4 72 55z" />
    <glyph glyph-name="macron" unicode="&#xaf;" horiz-adv-x="643" 
d="M127 1407q-86 -3 -86 104q0 53 21.5 81t62.5 26q205 -2 395 0q41 2 61.5 -25.5t20.5 -81t-21.5 -80t-66.5 -24.5q-163 3 -387 0z" />
    <glyph glyph-name="degree" unicode="&#xb0;" horiz-adv-x="468" 
d="M242 1141q-201 0 -201 192q0 199 201 199q186 0 186 -205q0 -186 -186 -186zM313 1333q0 82 -75 82q-82 0 -82 -80q0 -78 82 -78q75 0 75 76z" />
    <glyph glyph-name="plusminus" unicode="&#xb1;" horiz-adv-x="1021" 
d="M670 504q2 -51 -38 -77t-118 -26q-82 0 -123 25t-39 76q2 72 2 215q-139 0 -211 -2q-51 -2 -76.5 38t-25.5 117q0 82 24.5 123t75.5 39q72 -2 213 -2q0 139 -2 211q-2 51 39 75.5t123 24.5q78 0 118 -26.5t38 -79.5q-2 -68 -2 -205q141 0 213 2q51 2 75.5 -39t24.5 -123
q0 -78 -26.5 -117.5t-80.5 -37.5q-68 2 -206 2q0 -141 2 -213zM143 0q-51 -2 -76.5 38t-25.5 118q0 82 24.5 122.5t75.5 38.5q371 -6 740 0q51 2 75.5 -38.5t24.5 -122.5q0 -78 -26.5 -118t-80.5 -38q-335 6 -731 0z" />
    <glyph glyph-name="uni00B2" unicode="&#xb2;" horiz-adv-x="704" 
d="M436 664h-225q-70 0 -115 38.5t-45 104.5q0 86 62 149q135 145 135 170q0 35 -29 35q-27 0 -69 -31q-27 -18 -52 -18q-29 0 -53 64q-4 20 -4 30q0 25 16 41q39 37 103 60q92 37 192 32q295 -12 289 -217q-2 -115 -143 -180q-45 -20 -66.5 -37.5t-19.5 -32.5q0 -18 16 -18
q31 0 115 51q29 16 51 17q20 0 41 -13q29 -20 27 -104q-4 -98 -70 -125q-43 -16 -156 -16z" />
    <glyph glyph-name="uni00B3" unicode="&#xb3;" horiz-adv-x="698" 
d="M45 823q25 63 53 64q20 0 54 -19q45 -25 90 -26q41 0 45 41q4 29 -9.5 43t-41.5 12q-63 0 -89 12q-18 12 -18 51q0 43 25 54q29 10 82 6q27 -2 40 13.5t11 45.5q-2 39 -43 39q-47 0 -92 -26q-33 -18 -54 -19q-29 4 -53 66q-4 20 -4 30q0 25 16 41q43 37 103 58
q96 37 207 32q145 -4 217.5 -58t70.5 -159q-3 -77 -73 -123q70 -45 73 -124q2 -102 -70.5 -157.5t-217.5 -60.5q-111 -4 -207 33q-61 20 -103 60q-16 16 -16 41q0 10 4 30z" />
    <glyph glyph-name="acute" unicode="&#xb4;" horiz-adv-x="471" 
d="M109 1403q-55 0 -62 24q-6 16 16 58l68 117q0 2 3 7t6 12t7 15q23 47 68 60q25 6 96 6q115 0 119 -35q0 -25 -100 -127l-16.5 -21.5t-27 -33t-26.5 -33.5q-42 -49 -151 -49z" />
    <glyph glyph-name="uni00B5" unicode="&#xb5;" horiz-adv-x="1458" 
d="M1417 655q0 -299 -196 -493q-193 -193 -494 -193t-493.5 192.5t-192.5 493.5t192 494q193 197 494 197t495.5 -195t194.5 -496zM1227 657q0 219 -142 359q-139 139 -358 139q-217 0 -360 -139q-139 -139 -139.5 -358.5t139.5 -358.5q143 -139 360 -139q215 0 358 139
q142 141 142 358zM999 965q25 -33 39 -64q6 -8 6 -16l-94 -58h150v-131h-291q4 -12 20 -45q70 -160 279 -231l-92 -121q-166 84 -291 270q-71 -154 -270 -270l-93 121q197 78 263 219l18 57h-276v131h292v203l142 -20q14 -2 14 -11q0 -4 -12 -8t-12 -10v-154h151
q-31 66 -100 144l100 63l10 -10q12 -18 47 -59z" />
    <glyph glyph-name="paragraph" unicode="&#xb6;" horiz-adv-x="1327" 
d="M1282 113q2 -63 -38 -94t-120 -31q-82 0 -122.5 29.5t-38.5 88.5q8 381 2 873q0 57 -64 57h-6q-63 0 -64 -57q-6 -397 5 -866q2 -63 -38 -94t-120 -31q-82 0 -123 29.5t-39 88.5q2 45 3 165t1 180q-473 14 -477 428q-2 219 129 329.5t393 110.5h559q82 0 121 -34t37 -99
q-12 -459 0 -1073z" />
    <glyph glyph-name="periodcentered" unicode="&#xb7;" horiz-adv-x="460" 
d="M236 387q-190 0 -193 184q-2 197 193 197q184 0 184 -197q0 -184 -184 -184z" />
    <glyph glyph-name="cedilla" unicode="&#xb8;" horiz-adv-x="481" 
d="M162 16h33q40 0 43 -24q0 -12 -15 -107q0 -12 -4 -28q2 0 7 2t16.5 4t21.5 4q33 8 72 -2q104 -31 96 -141q-12 -145 -186 -152q-119 -4 -193 59q-9 9 -12 25q0 6 4 22q12 43 35 43q10 0 33 -12q39 -23 57 -22.5t23 18.5q8 45 -43.5 47t-73 19.5t-15.5 46.5q4 18 27 141
q8 57 74 57z" />
    <glyph glyph-name="uni00B9" unicode="&#xb9;" horiz-adv-x="579" 
d="M426 1317h20q92 0 93 -88v-21q-2 -10 -2 -39l-7 -399q0 -63 -27.5 -88t-96.5 -29h-41q-100 4 -138 41q-16 16 -18 70q-2 18 -2 119v141q0 63 -17 63q-4 0 -33.5 -14t-37.5 -14q-49 0 -68 69q-10 35 39 72q68 51 152 100q25 12 139 17h45z" />
    <glyph glyph-name="ordmasculine" unicode="&#xba;" horiz-adv-x="1071" 
d="M150 -4q-51 -2 -77 38t-26 118q0 82 24.5 122.5t75.5 38.5q390 -6 781 0q51 2 75.5 -39t24.5 -122q0 -78 -26.5 -118t-79.5 -38q-352 6 -772 0zM1030 862q0 -225 -139 -352t-363 -127q-227 0 -357 126t-130 353q0 229 129 356.5t358 127.5q365 0 471 -302q31 -86 31 -182
zM563 649q63 14 74 146q6 88 -14 168q-31 117 -101 118q-39 2 -60.5 -34.5t-25.5 -108.5q-14 -188 70 -270q26 -27 57 -19z" />
    <glyph glyph-name="guillemotright" unicode="&#xbb;" horiz-adv-x="1355" 
d="M651 272l348 346l-342 343q-37 35 -36 71q0 45 49 94q51 49 96 50q35 0 65 -31l453 -453q31 -31 31 -74t-33 -75l-446 -447q-35 -35 -70 -35q-45 0 -96 50q-49 53 -49 96q-1 34 30 65zM72 272l348 346l-342 343q-37 35 -37 71q0 45 49 94q53 49 96 50q35 0 66 -31
l453 -453q31 -31 30.5 -74t-33.5 -75l-446 -447q-35 -35 -70 -35q-43 0 -96 50q-49 53 -49 96q0 34 31 65z" />
    <glyph glyph-name="onequarter" unicode="&#xbc;" horiz-adv-x="1742" 
d="M842 702q-10 -43 -113 -43q-51 0 -74.5 9.5t-19.5 29.5q66 293 164 613q12 39 114 39q53 0 76 -11.5t15 -33.5q-82 -265 -162 -603zM426 1317h20q92 0 93 -88v-21q-2 -10 -2 -39l-7 -399q0 -63 -27.5 -88t-96.5 -29h-41q-100 4 -138 41q-16 16 -18 70q-2 18 -2 119v141
q0 63 -17 63q-4 0 -33.5 -14t-37.5 -14q-49 0 -68 69q-10 35 39 72q68 51 152 100q25 12 139 17h45zM1673 942q29 4 29 -82q0 -43 -13.5 -54t-62.5 -11q-23 0 -22 -23q0 -109 -127 -119q-8 0 -13 -2h-26q-100 2 -140 39q-10 10 -16 84q-252 -8 -274 76q-12 51 -13 90
q10 94 271 348q29 29 200 27q14 0 27 -2h27q92 0 92 -88v-29q-2 -14 -2 -31v-28l-6 -179q0 -18 14 -18q24 0 55 2zM1161 932v-4q12 -20 58 -19q43 0 55 13q8 10 10 43q0 18 2 32q0 82 -14 82q-22 0 -80 -86q-31 -46 -31 -61z" />
    <glyph glyph-name="onehalf" unicode="&#xbd;" horiz-adv-x="1722" 
d="M842 702q-10 -43 -113 -43q-51 0 -74.5 9.5t-19.5 29.5q66 293 164 613q12 39 114 39q53 0 76 -11.5t15 -33.5q-82 -265 -162 -603zM426 1317h20q92 0 93 -88v-21q-2 -10 -2 -39l-7 -399q0 -63 -27.5 -88t-96.5 -29h-41q-100 4 -138 41q-16 16 -18 70q-2 18 -2 119v141
q0 63 -17 63q-4 0 -33.5 -14t-37.5 -14q-49 0 -68 69q-10 35 39 72q68 51 152 100q25 12 139 17h45zM1454 664h-225q-70 0 -115 38.5t-45 104.5q0 86 61 149q135 145 136 170q0 35 -29 35q-27 0 -70 -31q-29 -18 -51 -18q-29 0 -53 64q-4 20 -4 30q0 25 16 41q39 37 103 60
q92 37 192 32q295 -12 289 -217q-2 -115 -143 -180q-45 -20 -67 -37.5t-19 -32.5q0 -18 16 -18q31 0 115 51q29 16 51 17q18 0 41 -13q29 -20 26 -104q-4 -98 -69 -125q-43 -16 -156 -16z" />
    <glyph glyph-name="threequarters" unicode="&#xbe;" horiz-adv-x="1806" 
d="M903 702q-10 -43 -112 -43q-51 0 -75 9.5t-20 29.5q63 295 164 613q12 39 117 39q51 0 73.5 -11.5t14.5 -33.5q-86 -271 -162 -603zM1735 942q31 4 30 -82q0 -43 -13 -54t-62 -11q-25 0 -25 -23q0 -63 -27.5 -89t-97.5 -30q-10 0 -14 -2h-27q-98 4 -137 39q-8 8 -19 84
q-221 -10 -268 66q-16 29 -16 100q10 86 268 348q37 29 201 27q18 0 28 -2h25q92 0 94 -88q0 -14 -2 -29v-41q-2 -6 -2 -18l-4 -179q0 -18 14 -18q40 0 54 2zM1225 928q10 -23 57 -19q49 4 57 23q4 10 9 65v45q-4 37 -15 37q-16 0 -78 -86q-33 -45 -32 -61q0 -2 2 -4z
M45 823q25 63 53 64q20 0 54 -19q45 -25 90 -26q41 0 45 41q4 29 -9.5 43t-41.5 12q-63 0 -89 12q-18 12 -18 51q0 43 25 54q29 10 82 6q27 -2 40 13.5t11 45.5q-2 39 -43 39q-47 0 -92 -26q-33 -18 -54 -19q-29 4 -53 66q-4 20 -4 30q0 25 16 41q43 37 103 58q96 37 207 32
q145 -4 217.5 -58t70.5 -159q-3 -77 -73 -123q70 -45 73 -124q2 -102 -70.5 -157.5t-217.5 -60.5q-111 -4 -207 33q-61 20 -103 60q-16 16 -16 41q0 10 4 30z" />
    <glyph glyph-name="questiondown" unicode="&#xbf;" horiz-adv-x="1288" 
d="M567 741q-4 31 51.5 55.5t174.5 45.5q47 8 94 8q111 0 133 -66q23 -80 22 -157q0 -174 -124 -273q-84 -68 -84 -125q0 -72 61 -71q49 0 137 63q53 37 101 37q61 -4 106 -129q8 -31 8 -61q0 -55 -33 -82q-84 -76 -202 -119q-195 -72 -385 -64q-293 10 -437.5 119
t-140.5 316q6 266 285 358q244 84 237 119q0 2 -1 5t-2 9t-1 12zM788 868q-43 -6 -77 -6q-164 0 -189 129q-4 29 -4 39q0 129 203 162q111 18 184 -12q92 -40 92 -148q0 -133 -209 -164z" />
    <glyph glyph-name="Agrave" unicode="&#xc0;" horiz-adv-x="1515" 
d="M700 1333l62 2q129 4 217 -84q76 -76 231 -389q238 -477 258 -708q6 -63 -12 -90t-80 -48q-68 -23 -225 -26q-301 -2 -334 90q-10 37 -31 90q-25 49 -71 49h-135q-31 4 -109 0q-53 -4 -78 -94q-16 -68 -43.5 -93.5t-93.5 -29.5q-211 -8 -213 88q-3 120 117 430
q113 297 235 527q84 156 133 204q80 80 172 82zM571 662q-29 0 -90 -195q-6 -20 17.5 -29.5t77 -9.5t76 10.5t14.5 32.5q-72 191 -95 191zM666 1540q-102 104 -99 127q0 35 117 35q72 0 96 -6q37 -8 72 -66l49 -90q57 -88 49 -113q-6 -25 -63 -24q-94 0 -127 27
q-20 14 -49 53q-35 45 -45 57z" />
    <glyph glyph-name="Aacute" unicode="&#xc1;" horiz-adv-x="1515" 
d="M700 1333l62 2q129 4 217 -84q76 -76 231 -389q238 -477 258 -708q6 -63 -12 -90t-80 -48q-68 -23 -225 -26q-301 -2 -334 90q-10 37 -31 90q-25 49 -71 49h-135q-31 4 -109 0q-53 -4 -78 -94q-16 -68 -43.5 -93.5t-93.5 -29.5q-211 -8 -213 88q-3 120 117 430
q113 297 235 527q84 156 133 204q80 80 172 82zM571 662q-29 0 -90 -195q-6 -20 17.5 -29.5t77 -9.5t76 10.5t14.5 32.5q-72 191 -95 191zM629 1403q-55 0 -62 24q-6 16 17 58l67 117q0 2 3 7t6.5 12l7.5 15q23 47 67 60q25 6 96 6q115 0 119 -35q0 -25 -100 -127
l-16.5 -21.5l-26.5 -33l-27 -33.5q-42 -49 -151 -49z" />
    <glyph glyph-name="Acircumflex" unicode="&#xc2;" horiz-adv-x="1515" 
d="M700 1333l62 2q129 4 217 -84q76 -76 231 -389q238 -477 258 -708q6 -63 -12 -90t-80 -48q-68 -23 -225 -26q-301 -2 -334 90q-10 37 -31 90q-25 49 -71 49h-135q-31 4 -109 0q-53 -4 -78 -94q-16 -68 -43.5 -93.5t-93.5 -29.5q-211 -8 -213 88q-3 120 117 430
q113 297 235 527q84 156 133 204q80 80 172 82zM571 662q-29 0 -90 -195q-6 -20 17.5 -29.5t77 -9.5t76 10.5t14.5 32.5q-72 191 -95 191zM755.5 1593q-9.5 0 -36.5 -92q-10 -35 -17 -45q-8 -27 -26 -37q-20 -14 -107 -14q-74 0 -77 31q-4 29 20 73l90 170q45 88 153.5 88
t153.5 -88l90 -170q25 -47 25 -63q0 -41 -82 -41q-78 0 -100 12q-27 14 -49 84q-28 92 -37.5 92z" />
    <glyph glyph-name="Atilde" unicode="&#xc3;" horiz-adv-x="1515" 
d="M700 1333l62 2q129 4 217 -84q76 -76 231 -389q238 -477 258 -708q6 -63 -12 -90t-80 -48q-68 -23 -225 -26q-301 -2 -334 90q-10 37 -31 90q-25 49 -71 49h-135q-31 4 -109 0q-53 -4 -78 -94q-16 -68 -43.5 -93.5t-93.5 -29.5q-211 -8 -213 88q-3 120 117 430
q113 297 235 527q84 156 133 204q80 80 172 82zM571 662q-29 0 -90 -195q-6 -20 17.5 -29.5t77 -9.5t76 10.5t14.5 32.5q-72 191 -95 191zM1004 1692q76 -8 63 -78q-39 -229 -233 -201q-72 8 -138 78q-29 33 -49 29q-18 -2 -29 -56q-6 -52 -24 -55q-23 -6 -82 0
q-74 8 -66 78q25 170 160 199q39 8 76 4q80 -10 137 -80q10 -12 33 -29q6 -2 16 -2q20 2 27 59q4 47 27 54q25 6 82 0z" />
    <glyph glyph-name="Adieresis" unicode="&#xc4;" horiz-adv-x="1515" 
d="M700 1333l62 2q129 4 217 -84q76 -76 231 -389q238 -477 258 -708q6 -63 -12 -90t-80 -48q-68 -23 -225 -26q-301 -2 -334 90q-10 37 -31 90q-25 49 -71 49h-135q-31 4 -109 0q-53 -4 -78 -94q-16 -68 -43.5 -93.5t-93.5 -29.5q-211 -8 -213 88q-3 120 117 430
q113 297 235 527q84 156 133 204q80 80 172 82zM571 662q-29 0 -90 -195q-6 -20 17.5 -29.5t77 -9.5t76 10.5t14.5 32.5q-72 191 -95 191zM575 1403q-143 0 -143 137q0 141 143 141q133 0 134 -145q-1 -133 -134 -133zM952 1403q-143 0 -143 137q0 141 143 141
q133 0 133 -145q0 -133 -133 -133z" />
    <glyph glyph-name="Aring" unicode="&#xc5;" horiz-adv-x="1515" 
d="M700 1333l62 2q129 4 217 -84q76 -76 231 -389q238 -477 258 -708q6 -63 -12 -90t-80 -48q-68 -23 -225 -26q-301 -2 -334 90q-10 37 -31 90q-25 49 -71 49h-135q-31 4 -109 0q-53 -4 -78 -94q-16 -68 -43.5 -93.5t-93.5 -29.5q-211 -8 -213 88q-3 120 117 430
q113 297 235 527q84 156 133 204q80 80 172 82zM571 662q-29 0 -90 -195q-6 -20 17.5 -29.5t77 -9.5t76 10.5t14.5 32.5q-72 191 -95 191zM766 1405q-201 0 -201 192q0 199 201 199q186 0 186 -205q0 -186 -186 -186zM838 1597q0 82 -76 82q-82 0 -82 -80q0 -78 82 -77
q76 -1 76 75z" />
    <glyph glyph-name="AE" unicode="&#xc6;" horiz-adv-x="2025" 
d="M1890 348q68 9 86 -86q8 -39 9 -80q0 -125 -189 -162q-164 -33 -399 -32h-242q-133 0 -186 4q-129 14 -152 78q-8 23 -10 104q-2 45 -57 45h-136q-31 4 -108 0q-53 -4 -103 -94q-33 -61 -65 -88q-39 -33 -105 -35q-193 -8 -192 72q0 86 235 446q203 309 375 527
q123 154 189 204q94 74 194 82l27 2q98 -4 162 -88q84 70 272 70q102 0 301 -35q188 -35 189 -162q0 -162 -91 -162q-29 0 -100 11q-65 12 -98 12q-100 2 -131 -14q-39 -20 -39 -86q0 -86 104 -97q96 -10 176 -12q72 -4 70 -121q0 -82 -39 -106q-29 -16 -133 -15
q-119 2 -154 -32q-25 -25 -24 -70q0 -61 41 -86q31 -16 129 -14q71 0 194 20zM725 662q-27 0 -141 -195q-4 -8 -4 -12q0 -27 88 -27q22 0 49 6t40 15.5t11 21.5q-21 191 -43 191z" />
    <glyph glyph-name="Ccedilla" unicode="&#xc7;" horiz-adv-x="1464" 
d="M764 -31h-37q-2 -12 -12 -84q0 -12 -4 -28q2 0 7 2t16 4l22 4q33 8 71 -2q104 -31 97 -141q-12 -145 -187 -152q-119 -4 -192 59q-9 9 -13 25q0 6 5 22q12 43 34 43q10 0 33 -12q39 -23 57.5 -22.5t22.5 18.5q8 45 -43 47t-72.5 19.5t-15.5 46.5q4 18 27 141q4 18 8 25
q-272 43 -410 223q-137 170 -137 452q0 324 184 506q186 182 512 183q233 0 420 -111q227 -133 256 -367q10 -80 -70 -106q-16 -6 -145 -23q-96 -12 -111 70q-31 184 -180 164q-109 -14 -125 -227q-4 -82 -4 -89q0 -322 144 -321q126 0 153 123q23 115 119 110
q109 -4 143 -16q78 -29 78 -109q0 -20 -6 -47q-163 -430 -645 -430z" />
    <glyph glyph-name="Egrave" unicode="&#xc8;" horiz-adv-x="1294" 
d="M555 1540q-102 104 -98 127q0 35 116 35q72 0 97 -6q37 -8 71 -66l50 -90q57 -88 49 -113q-6 -25 -64 -24q-94 0 -127 27q-20 14 -49 53q-35 45 -45 57zM1159 348q68 9 86 -86q8 -39 8 -80q0 -125 -188 -162q-164 -33 -447 -32q-453 0 -522 88q-55 72 -55 403v166
q0 492 39 563q20 43 80 66q34 12 104 24q121 20 328 21q273 0 473 -37q188 -35 188 -162q0 -162 -90 -162q-29 0 -100 11q-65 12 -98 12q-100 2 -131 -14q-39 -20 -39 -86q0 -86 104 -97q96 -10 176 -12q72 -4 70 -121q0 -82 -39 -106q-29 -16 -133 -15q-119 2 -154 -32
q-25 -25 -24 -70q0 -61 41 -86q31 -16 129 -14q71 0 194 20z" />
    <glyph glyph-name="Eacute" unicode="&#xc9;" horiz-adv-x="1294" 
d="M518 1403q-55 0 -61 24q-6 16 16 58l68 117q0 2 3 7t6 12t7 15q23 47 68 60q25 6 96 6q115 0 119 -35q0 -25 -101 -127l-16 -21.5t-26.5 -33t-26.5 -33.5q-43 -49 -152 -49zM1159 348q68 9 86 -86q8 -39 8 -80q0 -125 -188 -162q-164 -33 -447 -32q-453 0 -522 88
q-55 72 -55 403v166q0 492 39 563q20 43 80 66q34 12 104 24q121 20 328 21q273 0 473 -37q188 -35 188 -162q0 -162 -90 -162q-29 0 -100 11q-65 12 -98 12q-100 2 -131 -14q-39 -20 -39 -86q0 -86 104 -97q96 -10 176 -12q72 -4 70 -121q0 -82 -39 -106q-29 -16 -133 -15
q-119 2 -154 -32q-25 -25 -24 -70q0 -61 41 -86q31 -16 129 -14q71 0 194 20z" />
    <glyph glyph-name="Ecircumflex" unicode="&#xca;" horiz-adv-x="1294" 
d="M645 1591q-9 0 -37 -92q-10 -35 -16 -45q-8 -27 -27 -37q-20 -14 -106 -14q-74 0 -78 31q-4 29 20 73l91 170q45 88 153.5 88t153.5 -88l90 -170q25 -45 24 -63q0 -41 -82 -41q-78 0 -100 12q-27 14 -49 84q-28 92 -37 92zM1159 348q68 9 86 -86q8 -39 8 -80
q0 -125 -188 -162q-164 -33 -447 -32q-453 0 -522 88q-55 72 -55 403v166q0 492 39 563q20 43 80 66q34 12 104 24q121 20 328 21q273 0 473 -37q188 -35 188 -162q0 -162 -90 -162q-29 0 -100 11q-65 12 -98 12q-100 2 -131 -14q-39 -20 -39 -86q0 -86 104 -97
q96 -10 176 -12q72 -4 70 -121q0 -82 -39 -106q-29 -16 -133 -15q-119 2 -154 -32q-25 -25 -24 -70q0 -61 41 -86q31 -16 129 -14q71 0 194 20z" />
    <glyph glyph-name="Edieresis" unicode="&#xcb;" horiz-adv-x="1294" 
d="M465 1403q-143 0 -143 137q0 141 143 141q133 0 133 -145q0 -133 -133 -133zM842 1403q-143 0 -144 137q0 141 144 141q133 0 133 -145q0 -133 -133 -133zM1159 348q68 9 86 -86q8 -39 8 -80q0 -125 -188 -162q-164 -33 -447 -32q-453 0 -522 88q-55 72 -55 403v166
q0 492 39 563q20 43 80 66q34 12 104 24q121 20 328 21q273 0 473 -37q188 -35 188 -162q0 -162 -90 -162q-29 0 -100 11q-65 12 -98 12q-100 2 -131 -14q-39 -20 -39 -86q0 -86 104 -97q96 -10 176 -12q72 -4 70 -121q0 -82 -39 -106q-29 -16 -133 -15q-119 2 -154 -32
q-25 -25 -24 -70q0 -61 41 -86q31 -16 129 -14q71 0 194 20z" />
    <glyph glyph-name="Igrave" unicode="&#xcc;" horiz-adv-x="755" 
d="M289 1540q-102 104 -99 127q0 35 117 35q72 0 96 -6q37 -8 72 -66l49 -90q57 -88 49 -113q-6 -25 -63 -24q-94 0 -127 27q-20 14 -49 53q-35 45 -45 57zM713 1143l-8 -920q-4 -143 -72 -190q-51 -35 -203 -45q-23 -4 -59 0q-197 6 -281 84q-34 34 -43 301v313
q0 172 -6 338q2 152 72 217q84 78 293 78q51 0 114 -2q96 -2 145.5 -46t47.5 -128z" />
    <glyph glyph-name="Iacute" unicode="&#xcd;" horiz-adv-x="755" 
d="M252 1403q-55 0 -62 24q-6 16 17 58l67 117q0 2 3.5 7t6.5 12t7 15q23 47 67 60q25 6 97 6q115 0 118 -35q0 -25 -100 -127l-16.5 -21.5l-26.5 -33l-27 -33.5q-42 -49 -151 -49zM713 1143l-8 -920q-4 -143 -72 -190q-51 -35 -203 -45q-23 -4 -59 0q-197 6 -281 84
q-34 34 -43 301v313q0 157 -6 338q2 152 72 217q84 78 293 78q51 0 114 -2q96 -2 145.5 -46t47.5 -128z" />
    <glyph glyph-name="Icircumflex" unicode="&#xce;" horiz-adv-x="755" 
d="M379 1593q-9 0 -37 -92q-10 -35 -16 -45q-8 -27 -27 -37q-20 -14 -106 -14q-74 0 -78 31q-4 29 20 73l90 170q45 88 153.5 88t153.5 -88l91 -170q25 -47 24 -63q0 -41 -82 -41q-78 0 -100 12q-27 14 -49 84q-28 92 -37 92zM713 1143l-8 -920q-4 -143 -72 -190
q-51 -35 -203 -45q-23 -4 -59 0q-197 6 -281 84q-34 34 -43 301v313q0 172 -6 338q2 152 72 217q84 78 293 78q51 0 114 -2q96 -2 145.5 -46t47.5 -128z" />
    <glyph glyph-name="Idieresis" unicode="&#xcf;" horiz-adv-x="755" 
d="M199 1403q-143 0 -144 137q0 141 144 141q133 0 133 -145q0 -133 -133 -133zM575 1403q-143 0 -143 137q0 141 143 141q133 0 134 -145q-1 -133 -134 -133zM713 1143l-8 -920q-4 -143 -72 -190q-51 -35 -203 -45q-23 -4 -59 0q-197 6 -281 84q-34 34 -43 301v313
q0 172 -6 338q2 152 72 217q84 78 293 78q51 0 114 -2q96 -2 145.5 -46t47.5 -128z" />
    <glyph glyph-name="Eth" unicode="&#xd0;" horiz-adv-x="1505" 
d="M868 782h15q51 2 75.5 -30.5t24.5 -98.5q0 -63 -26.5 -95t-79.5 -30h-9q4 -80 9 -114q6 -33 12 -41q8 -16 35 -21q152 -6 206 178q16 59 17 127q0 248 -174 297q-28 9 -49 7q-37 -2 -45 -64q-9 -58 -11 -115zM184 528h-41q-51 -2 -76.5 30t-25.5 95q0 66 24.5 98.5
t75.5 30.5h43q2 401 35 459q43 80 481 80q500 0 686 -350q78 -145 78 -314q0 -399 -331 -573q-184 -96 -437 -94q-422 4 -477 82q-33 46 -35 456z" />
    <glyph glyph-name="Ntilde" unicode="&#xd1;" horiz-adv-x="1345" 
d="M1290 1176q14 -244 15 -695q0 -301 -17 -379q-25 -111 -153 -110h-142q-139 0 -235 90q-252 238 -332 305q-8 6 -14 6q-23 0 -23 -80q0 -115 8 -188q6 -70 -30.5 -103.5t-112.5 -31.5l-80 2q-108 3 -117 160q-16 324 -14 524q4 512 74 581q61 63 198 62l150 -2
q119 -2 217 -113q187 -212 240 -264q18 -23 28.5 -22.5t10.5 20.5q2 12 -9 250q-4 66 32 97.5t112 31.5h71q114 0 123 -141zM920 1692q76 -8 63 -78q-39 -229 -233 -201q-72 8 -138 78q-29 33 -49 29q-18 -2 -28 -56q-6 -52 -25 -55q-23 -6 -82 0q-74 8 -66 78
q25 170 160 199q39 8 76 4q80 -10 137 -80q10 -12 33 -29q6 -2 16 -2q20 2 27 59q4 47 27 54q25 6 82 0z" />
    <glyph glyph-name="Ograve" unicode="&#xd2;" horiz-adv-x="1495" 
d="M1454 655q0 -323 -197 -503q-195 -182 -520 -182.5t-512 180.5q-184 182 -184 505q0 328 184 508q186 182 512 183q537 0 682 -459q35 -115 35 -232zM786 350q94 20 105 207q8 121 -21 242q-41 164 -143 168q-111 4 -123 -205q-16 -281 103 -387q36 -34 79 -25zM655 1540
q-102 104 -98 127q0 35 117 35q72 0 96 -6q37 -8 72 -66l49 -90q57 -88 49 -113q-6 -25 -63 -24q-94 0 -127 27q-20 14 -50 53q-33 45 -45 57z" />
    <glyph glyph-name="Oacute" unicode="&#xd3;" horiz-adv-x="1495" 
d="M1454 655q0 -323 -197 -503q-195 -182 -520 -182.5t-512 180.5q-184 182 -184 505q0 328 184 508q186 182 512 183q537 0 682 -459q35 -115 35 -232zM786 350q94 20 105 207q8 121 -21 242q-41 164 -143 168q-111 4 -123 -205q-16 -281 103 -387q36 -34 79 -25zM618 1403
q-55 0 -61 24q-6 16 16 58l68 117q0 2 3 7t6 12t7 15q23 47 68 60q25 6 96 6q115 0 119 -35q0 -25 -100 -127l-16.5 -21.5t-27 -33t-26.5 -33.5q-43 -49 -152 -49z" />
    <glyph glyph-name="Ocircumflex" unicode="&#xd4;" horiz-adv-x="1495" 
d="M1454 655q0 -323 -197 -503q-195 -182 -520 -182.5t-512 180.5q-184 182 -184 505q0 328 184 508q186 182 512 183q537 0 682 -459q35 -115 35 -232zM786 350q94 20 105 207q8 121 -21 242q-41 164 -143 168q-111 4 -123 -205q-16 -281 103 -387q36 -34 79 -25z
M745.5 1593q-9.5 0 -36.5 -92q-10 -35 -17 -45q-8 -27 -26 -37q-20 -14 -107 -14q-76 0 -78 31q-4 29 21 73l90 170q45 88 153.5 88t153.5 -88l90 -170q25 -47 25 -63q0 -41 -82 -41q-80 0 -101 12q-27 14 -49 84q-27 92 -36.5 92z" />
    <glyph glyph-name="Otilde" unicode="&#xd5;" horiz-adv-x="1495" 
d="M1454 655q0 -323 -197 -503q-195 -182 -520 -182.5t-512 180.5q-184 182 -184 505q0 328 184 508q186 182 512 183q537 0 682 -459q35 -115 35 -232zM786 350q94 20 105 207q8 121 -21 242q-41 164 -143 168q-111 4 -123 -205q-16 -281 103 -387q36 -34 79 -25zM993 1692
q76 -8 64 -78q-39 -229 -234 -201q-72 8 -137 78q-29 33 -49 29q-18 -2 -29 -56q-6 -52 -24 -55q-23 -6 -82 0q-74 8 -66 78q25 170 160 199q39 8 76 4q80 -10 137 -80q10 -12 33 -29q6 -2 16 -2q20 2 27 59q4 47 26 54q25 6 82 0z" />
    <glyph glyph-name="Odieresis" unicode="&#xd6;" horiz-adv-x="1495" 
d="M1454 655q0 -323 -197 -503q-195 -182 -520 -182.5t-512 180.5q-184 182 -184 505q0 328 184 508q186 182 512 183q537 0 682 -459q35 -115 35 -232zM786 350q94 20 105 207q8 121 -21 242q-41 164 -143 168q-111 4 -123 -205q-16 -281 103 -387q36 -34 79 -25zM565 1403
q-143 0 -143 137q0 141 143 141q133 0 133 -145q0 -133 -133 -133zM942 1403q-143 0 -143 137q0 141 143 141q133 0 133 -145q0 -133 -133 -133z" />
    <glyph glyph-name="multiply" unicode="&#xd7;" horiz-adv-x="886" 
d="M815 428q31 -27 31 -63q0 -53 -70 -123q-68 -68 -123 -68q-33 0 -61 29l-150 151l-147 -149q-29 -29 -62 -29q-53 0 -124 68q-68 68 -68 123q0 33 29 61l151 147l-151 150q-29 29 -29 59q0 55 68 123q68 70 122 70q37 0 68 -33l141 -147l152 153q29 29 61 29
q55 0 123 -68q70 -68 70 -123q0 -35 -33 -65l-151 -148z" />
    <glyph glyph-name="Oslash" unicode="&#xd8;" horiz-adv-x="1495" 
d="M434 18l-59 -102q-20 -37 -64 -12q-45 25 -22 59l55 98q-303 168 -303 594q0 328 184 508q186 182 512 183q180 0 322 -54l63 111q18 33 62 8q29 -16 28 -37q0 -10 -8 -24l-57 -99q92 -45 170 -155q137 -197 137 -441q0 -323 -197 -503q-195 -182 -520 -183
q-172 0 -303 49zM786 350q94 20 105 207q8 129 -14 225l-211 -362q65 -84 120 -70zM727 967q-55 4 -86 -47.5t-37 -157.5q-8 -125 14 -227l209 362q-43 68 -100 70z" />
    <glyph glyph-name="Ugrave" unicode="&#xd9;" horiz-adv-x="1421" 
d="M618 1540q-102 104 -98 127q0 35 117 35q72 0 96 -6q37 -8 72 -66l49 -90q57 -88 49 -113q-6 -25 -63 -24q-94 0 -127 27q-20 14 -49 53q-34 45 -46 57zM1368 1214l10 -286q2 -33 0 -254q-4 -434 -272 -600q-168 -104 -389 -105q-323 0 -504 221q-170 211 -170 537v86
q-2 4 2 188q6 297 195 308q16 0 45.5 2t76 3t87.5 3q236 6 268 -45q18 -29 16 -119q0 -31 -10 -242q-6 -133 -6 -241q2 -141 38 -209t107 -64q18 0 37 2q129 12 129 207l-2 602q0 96 172 97q166 -1 170 -91z" />
    <glyph glyph-name="Uacute" unicode="&#xda;" horiz-adv-x="1421" 
d="M582 1403q-55 0 -62 24q-6 16 17 58l67 117q0 2 3 7t6 12t8 15q23 47 67 60q25 6 96 6q115 0 119 -35q0 -25 -100 -127l-16.5 -21.5t-27 -33t-26.5 -33.5q-42 -49 -151 -49zM1368 1214l10 -286q2 -33 0 -254q-4 -434 -272 -600q-168 -104 -389 -105q-323 0 -504 221
q-170 211 -170 537v86q-2 4 2 188q6 297 195 308q16 0 45.5 2t76 3t87.5 3q236 6 268 -45q18 -29 16 -119q0 -31 -10 -242q-6 -133 -6 -241q2 -141 38 -209t107 -64q18 0 37 2q129 12 129 207l-2 602q0 96 172 97q166 -1 170 -91z" />
    <glyph glyph-name="Ucircumflex" unicode="&#xdb;" horiz-adv-x="1421" 
d="M708.5 1593q-9.5 0 -36.5 -92q-10 -35 -17 -45q-8 -27 -26 -37q-20 -14 -107 -14q-76 0 -78 31q-4 29 21 73l90 170q45 88 153.5 88t153.5 -88l90 -170q25 -47 25 -63q0 -41 -82 -41q-80 0 -100 12q-27 14 -50 84q-27 92 -36.5 92zM1368 1214l10 -286q2 -33 0 -254
q-4 -434 -272 -600q-168 -104 -389 -105q-323 0 -504 221q-170 211 -170 537v86q-2 4 2 188q6 297 195 308q16 0 45.5 2t76 3t87.5 3q236 6 268 -45q18 -29 16 -119q0 -31 -10 -242q-6 -133 -6 -241q2 -141 38 -209t107 -64q18 0 37 2q129 12 129 207l-2 602q0 96 172 97
q166 -1 170 -91z" />
    <glyph glyph-name="Udieresis" unicode="&#xdc;" horiz-adv-x="1421" 
d="M528 1403q-143 0 -143 137q0 141 143 141q133 0 134 -145q-1 -133 -134 -133zM905 1403q-143 0 -143 137q0 141 143 141q133 0 133 -145q0 -133 -133 -133zM1368 1214l10 -286q2 -33 0 -254q-4 -434 -272 -600q-168 -104 -389 -105q-323 0 -504 221q-170 211 -170 537v86
q-2 4 2 188q6 297 195 308q16 0 45.5 2t76 3t87.5 3q236 6 268 -45q18 -29 16 -119q0 -31 -10 -242q-6 -133 -6 -241q2 -141 38 -209t107 -64q18 0 37 2q129 12 129 207l-2 602q0 96 172 97q166 -1 170 -91z" />
    <glyph glyph-name="Yacute" unicode="&#xdd;" horiz-adv-x="1456" 
d="M424 217l-6 176q-6 133 -33 166l-246 412q-98 172 -98 246q0 90 264 100q61 4 109 0q94 -2 143 -23q61 -25 111 -96l170 -235q14 -14 32 -15q14 0 25 8q47 51 100 150q90 170 101 178q27 20 84 25q236 8 235 -64q0 -127 -188 -444l-148 -246q-15 -28 -12 -141l6 -191
q4 -139 -72 -190q-51 -35 -202 -45q-23 -4 -60 0q-197 6 -280 84q-31 28 -35 145zM600 1403q-55 0 -61 24q-6 16 16 58l68 117q0 2 3 7t6 12t7 15q23 47 68 60q25 6 96 6q115 0 119 -35q0 -25 -101 -127l-16 -21.5t-26.5 -33t-26.5 -33.5q-43 -49 -152 -49z" />
    <glyph glyph-name="Thorn" unicode="&#xde;" horiz-adv-x="1437" 
d="M1077 887q0 100 -92 106l-33 2q-83 6 -123 -12q-57 -25 -53 -96q6 -123 158 -113q143 9 143 113zM776 371q0 -76 2 -123q3 -104 -24 -154q-45 -88 -244 -104q-29 -4 -133 0q-121 4 -152 10q-84 14 -129 70q-55 68 -55 575q0 850 39 926q20 43 78 65q92 35 415 45
q184 2 185 -174v-188q639 0 639 -434q0 -143 -51 -221q-82 -131 -345 -168l-86 -13q-16 -2 -37 -6l-22 -4q-41 -10 -53 -22q-27 -27 -27 -80z" />
    <glyph glyph-name="germandbls" unicode="&#xdf;" horiz-adv-x="2760" 
d="M694 -31q-221 -8 -418 66q-119 43 -202 119q-33 27 -33 82q0 31 8 61q45 125 107 129q49 0 100 -37q88 -63 137 -63q57 0 57.5 55t-94.5 104q-285 150 -293 373q-18 469 605 490q221 8 417 -66q119 -43 203 -119q33 -27 33 -82q0 -31 -8 -61q-45 -125 -107 -129
q-47 0 -100 37q-88 63 -137 63q-57 0 -57.5 -55t94.5 -105q285 -150 292 -372q19 -470 -604 -490zM2093 -31q-221 -8 -418 66q-119 43 -202 119q-33 27 -33 82q0 31 8 61q45 125 106 129q47 0 101 -37q88 -63 137 -63q57 0 57 55t-94 104q-285 150 -293 373q-18 469 604 490
q221 8 418 -66q119 -43 203 -119q33 -27 33 -82q0 -31 -8 -61q-45 -125 -107 -129q-49 0 -100 37q-88 63 -138 63q-57 0 -57 -55t94 -105q285 -150 293 -372q19 -470 -604 -490z" />
    <glyph glyph-name="agrave" unicode="&#xe0;" horiz-adv-x="1335" 
d="M616 1163l54 2q111 3 190 -73q61 -57 201 -338q206 -415 227 -621q6 -55 -10 -78.5t-72 -42.5q-57 -18 -196 -22q-262 -4 -291 80l-29 82q-14 39 -59 38h-119q-27 2 -94 0q-49 -2 -70 -81q-16 -59 -35 -76q-20 -27 -84 -31q-184 -8 -186 78q-2 102 102 375
q104 274 205 458q71 132 117 179q69 69 149 71zM506 578q-27 0 -80 -170q-4 -12 10 -21q20 -14 72 -14q18 0 43 6q20 4 29.5 13t5.5 20q-62 166 -80 166zM588 1343q-6 6 -29.5 32l-42.5 46q-16 20 -14 35q0 25 53 29q18 2 47 2q61 0 84 -6q33 -8 64 -58l43 -80
q49 -80 43 -98q-6 -20 -58 -20h-43q-35 0 -65 24q-6 8 -17.5 21.5t-31 34t-33.5 38.5z" />
    <glyph glyph-name="aacute" unicode="&#xe1;" horiz-adv-x="1335" 
d="M616 1163l54 2q111 3 190 -73q61 -57 201 -338q206 -415 227 -621q6 -55 -10 -78.5t-72 -42.5q-57 -18 -196 -22q-262 -4 -291 80l-29 82q-14 39 -59 38h-119q-27 2 -94 0q-49 -2 -70 -81q-16 -59 -35 -76q-20 -27 -84 -31q-184 -8 -186 78q-2 102 102 375
q104 274 205 458q71 132 117 179q69 69 149 71zM506 578q-27 0 -80 -170q-4 -12 10 -21q20 -14 72 -14q18 0 43 6q20 4 29.5 13t5.5 20q-62 166 -80 166zM600 1225h-45q-51 0 -53 20q-6 14 12 51q45 76 74 131q23 43 59 54q20 6 84 6q101 0 105 -31q0 -14 -19 -35l-133 -153
q-43 -43 -84 -43z" />
    <glyph glyph-name="acircumflex" unicode="&#xe2;" horiz-adv-x="1335" 
d="M616 1163l54 2q111 3 190 -73q61 -57 201 -338q206 -415 227 -621q6 -55 -10 -78.5t-72 -42.5q-57 -18 -196 -22q-262 -4 -291 80l-29 82q-14 39 -59 38h-119q-27 2 -94 0q-49 -2 -70 -81q-16 -59 -35 -76q-20 -27 -84 -31q-184 -8 -186 78q-2 102 102 375
q104 274 205 458q71 132 117 179q69 69 149 71zM506 578q-27 0 -80 -170q-4 -12 10 -21q20 -14 72 -14q18 0 43 6q20 4 29.5 13t5.5 20q-62 166 -80 166zM666 1391q-8 0 -33 -80q-10 -37 -12 -41q-14 -31 -50 -41q-20 -4 -67 -4q-66 0 -68 26q-4 31 17 66l77 149
q41 78 136 78q92 0 133 -78l80 -149q25 -47 18 -64q-10 -29 -68 -28q-84 0 -108 30q-14 14 -37 109q-6 27 -18 27z" />
    <glyph glyph-name="atilde" unicode="&#xe3;" horiz-adv-x="1335" 
d="M616 1163l54 2q111 3 190 -73q61 -57 201 -338q206 -415 227 -621q6 -55 -10 -78.5t-72 -42.5q-57 -18 -196 -22q-262 -4 -291 80l-29 82q-14 39 -59 38h-119q-27 2 -94 0q-49 -2 -70 -81q-16 -59 -35 -76q-20 -27 -84 -31q-184 -8 -186 78q-2 102 102 375
q104 274 205 458q71 132 117 179q69 69 149 71zM506 578q-27 0 -80 -170q-4 -12 10 -21q20 -14 72 -14q18 0 43 6q20 4 29.5 13t5.5 20q-62 166 -80 166zM938 1430q0 -14 -2 -21q-14 -150 -137 -174q-33 -8 -66 -2q-29 4 -59.5 22.5t-43 28.5t-44.5 43q-6 2 -15 0
q-15 -3 -24 -49q-6 -45 -29 -51q-18 -4 -65 2q-68 8 -58 67q29 156 140 177q31 6 67 2q68 -8 119 -70q20 -27 43 -27q14 2 20 49q10 49 27 52q18 4 72 -2q55 -6 55 -47z" />
    <glyph glyph-name="adieresis" unicode="&#xe4;" horiz-adv-x="1335" 
d="M616 1163l54 2q111 3 190 -73q61 -57 201 -338q206 -415 227 -621q6 -55 -10 -78.5t-72 -42.5q-57 -18 -196 -22q-262 -4 -291 80l-29 82q-14 39 -59 38h-119q-27 2 -94 0q-49 -2 -70 -81q-16 -59 -35 -76q-20 -27 -84 -31q-184 -8 -186 78q-2 102 102 375
q104 274 205 458q71 132 117 179q69 69 149 71zM506 578q-27 0 -80 -170q-4 -12 10 -21q20 -14 72 -14q18 0 43 6q20 4 29.5 13t5.5 20q-62 166 -80 166zM508 1225q-127 0 -127 121q0 123 127 122q117 0 117 -127q0 -116 -117 -116zM838 1225q-127 0 -127 121q0 123 127 122
q117 0 116 -127q1 -116 -116 -116z" />
    <glyph glyph-name="aring" unicode="&#xe5;" horiz-adv-x="1335" 
d="M616 1163l54 2q111 3 190 -73q61 -57 201 -338q206 -415 227 -621q6 -55 -10 -78.5t-72 -42.5q-57 -18 -196 -22q-262 -4 -291 80l-29 82q-14 39 -59 38h-119q-27 2 -94 0q-49 -2 -70 -81q-16 -59 -35 -76q-20 -27 -84 -31q-184 -8 -186 78q-2 102 102 375
q104 274 205 458q71 132 117 179q69 69 149 71zM506 578q-27 0 -80 -170q-4 -12 10 -21q20 -14 72 -14q18 0 43 6q20 4 29.5 13t5.5 20q-62 166 -80 166zM674 1225q-174 0 -174 170q0 172 174 172q164 0 164 -178q0 -164 -164 -164zM737 1395q0 72 -67 71q-72 0 -72 -69
q0 -68 72 -68q67 0 67 66z" />
    <glyph glyph-name="ae" unicode="&#xe6;" horiz-adv-x="1789" 
d="M1667 303q58 9 74 -74q8 -35 8 -69q0 -111 -166 -142q-160 -29 -346 -28h-211q-117 0 -162 4q-117 12 -135 67q-4 18 -8 91q0 39 -51 38h-117q-31 4 -96 0q-45 -2 -88 -81q-31 -55 -58 -76q-35 -29 -90 -31q-65 -3 -110 6q-70 18 -58 72q8 47 92 192q57 100 111 183
q172 262 328 458q29 37 86 101q127 139 248 149l24 2q84 -4 141 -75q76 61 238 61q98 0 262 -33q80 -15 117 -37q49 -37 49 -104q0 -45 -16 -88q-23 -53 -64 -53q-20 0 -85.5 10t-86.5 10q-90 4 -115 -12q-35 -18 -34 -76q0 -66 96 -84q39 -4 149 -10q61 -4 60 -107
q0 -72 -33 -92q-20 -14 -115 -12q-100 2 -135 -29q-23 -23 -22 -61q0 -53 34 -76q23 -12 115 -10q55 0 170 16zM649 578q-27 0 -125 -170q-4 -8 -4 -13q0 -23 78 -22q47 0 68.5 9t19.5 30q-19 166 -37 166z" />
    <glyph glyph-name="ccedilla" unicode="&#xe7;" horiz-adv-x="1288" 
d="M672 -29h-33q-6 -47 -8 -71q0 -12 -4 -25l14 4q14 4 25 6q35 6 61 -2q92 -29 84 -125q-8 -125 -164 -131q-41 -2 -108 17q-27 10 -58 34q-14 12 -8 41q14 39 33 39q8 0 26 -12q29 -20 50 -20q16 0 20 16q8 39 -37 41t-63.5 16.5t-14.5 40.5q0 4 23 125l6 19
q-231 39 -353 193.5t-122 397.5q0 283 162 442t444 159q211 0 369 -95q199 -117 223 -321q9 -68 -61 -92q-31 -10 -127 -21q-14 -2 -25 -2q-63 0 -72 62q-27 162 -157 143q-94 -12 -109 -199q-4 -70 -4 -76q0 -281 125 -280q78 0 113 53q8 18 22 55t19 46q23 53 84 49
q137 -4 174 -41q20 -23 20 -66q0 -14 -4 -43q-143 -377 -565 -377z" />
    <glyph glyph-name="egrave" unicode="&#xe8;" horiz-adv-x="1140" 
d="M543 1278q-12 16 -123 143q-18 23 -17 35q0 31 103 31q63 0 84 -6q41 -10 57 -54l49 -84q45 -72 41 -98q-2 -20 -53 -20h-47q-47 0 -94 53zM1018 303q41 6 61.5 -29.5t20.5 -113.5q0 -111 -166 -142q-156 -29 -389 -28q-393 0 -455 76q-49 61 -49 354v143q0 426 35 492
q51 98 446 98q227 0 412 -35q84 -16 115 -37q51 -33 51 -104q0 -45 -17 -88q-23 -53 -61 -53q-25 0 -90.5 10t-85.5 10q-88 2 -113 -12q-33 -18 -33 -76q0 -66 95 -84q39 -4 149 -10q61 -2 62 -107q0 -70 -35 -92q-20 -14 -119 -12q-94 2 -133 -29q-18 -22 -19 -61
q0 -53 35 -76q20 -12 111 -10q53 0 172 16z" />
    <glyph glyph-name="eacute" unicode="&#xe9;" horiz-adv-x="1140" 
d="M504 1225h-47q-51 0 -54 20q-6 12 37 90q4 6 14.5 26.5l14.5 28t13.5 24t15.5 24.5t15 18t18.5 16.5t19.5 8.5q23 6 84 6q102 0 102 -31q0 -10 -86 -113q-31 -41 -63 -75q-43 -43 -84 -43zM1018 303q41 6 61.5 -29.5t20.5 -113.5q0 -111 -166 -142q-156 -29 -389 -28
q-393 0 -455 76q-49 61 -49 354v143q0 426 35 492q51 98 446 98q227 0 412 -35q84 -16 115 -37q51 -33 51 -104q0 -45 -17 -88q-23 -53 -61 -53q-25 0 -90.5 10t-85.5 10q-88 2 -113 -12q-33 -18 -33 -76q0 -66 95 -84q39 -4 149 -10q61 -2 62 -107q0 -70 -35 -92
q-20 -14 -119 -12q-94 2 -133 -29q-18 -22 -19 -61q0 -53 35 -76q20 -12 111 -10q53 0 172 16z" />
    <glyph glyph-name="ecircumflex" unicode="&#xea;" horiz-adv-x="1140" 
d="M569 1389q-8 0 -32 -80q-18 -61 -43 -74q-16 -10 -88 -10q-66 0 -68 26q-2 20 18 64l78 149q41 78 135 78q92 0 133 -78l78 -149q23 -45 23 -53q0 -37 -72 -37q-76 0 -92 10q-20 14 -39 74q-25 80 -31 80zM1018 303q41 6 61.5 -29.5t20.5 -113.5q0 -111 -166 -142
q-156 -29 -389 -28q-393 0 -455 76q-49 61 -49 354v143q0 426 35 492q51 98 446 98q227 0 412 -35q84 -16 115 -37q51 -33 51 -104q0 -45 -17 -88q-23 -53 -61 -53q-25 0 -90.5 10t-85.5 10q-88 2 -113 -12q-33 -18 -33 -76q0 -66 95 -84q39 -4 149 -10q61 -2 62 -107
q0 -70 -35 -92q-20 -14 -119 -12q-94 2 -133 -29q-18 -22 -19 -61q0 -53 35 -76q20 -12 111 -10q53 0 172 16z" />
    <glyph glyph-name="edieresis" unicode="&#xeb;" horiz-adv-x="1140" 
d="M412 1225q-125 0 -125 121q0 123 125 122q115 0 114 -127q1 -116 -114 -116zM739 1225q-125 0 -125 121q0 123 125 122q117 0 117 -127q0 -116 -117 -116zM1018 303q41 6 61.5 -29.5t20.5 -113.5q0 -111 -166 -142q-156 -29 -389 -28q-393 0 -455 76q-49 61 -49 354v143
q0 426 35 492q51 98 446 98q227 0 412 -35q84 -16 115 -37q51 -33 51 -104q0 -45 -17 -88q-23 -53 -61 -53q-25 0 -90.5 10t-85.5 10q-88 2 -113 -12q-33 -18 -33 -76q0 -66 95 -84q39 -4 149 -10q61 -2 62 -107q0 -70 -35 -92q-20 -14 -119 -12q-94 2 -133 -29
q-18 -22 -19 -61q0 -53 35 -76q20 -12 111 -10q53 0 172 16z" />
    <glyph glyph-name="igrave" unicode="&#xec;" horiz-adv-x="671" 
d="M313 1278q-6 4 -125 143q-16 20 -16 35q0 31 102 31q61 0 84 -6q35 -10 64 -58l43 -80q49 -74 43 -98q-6 -20 -57 -20h-45q-50 0 -93 53zM629 997l-8 -802q-3 -120 -62 -166q-45 -33 -176 -39h-53q-172 4 -246 71q-31 28 -37 265v272q0 154 -6 295q2 131 63 192
q72 68 256 68q43 0 99 -2q86 -2 129 -40t41 -114z" />
    <glyph glyph-name="iacute" unicode="&#xed;" horiz-adv-x="671" 
d="M367 1278q-47 -53 -95 -53h-47q-51 0 -53 20q-4 25 35 92l53 90q23 45 59 54q20 6 84 6q101 0 105 -31q0 -14 -19 -35q-16 -16 -122 -143zM629 997l-8 -802q-3 -120 -62 -166q-45 -33 -176 -39h-53q-172 4 -246 71q-31 28 -37 265v272q0 141 -6 295q2 131 63 192
q72 68 256 68q43 0 99 -2q86 -2 129 -40t41 -114z" />
    <glyph glyph-name="icircumflex" unicode="&#xee;" horiz-adv-x="671" 
d="M336 1391q-6 0 -31 -80q-18 -61 -45 -76q-20 -10 -85.5 -10t-68.5 26q-4 29 17 66l80 149q41 78 133 78q94 0 135 -78l78 -149q27 -47 20 -64q-10 -29 -69 -28q-82 0 -107 32q-16 16 -37 107q-6 27 -20 27zM629 997l-8 -802q-3 -120 -62 -166q-45 -33 -176 -39h-53
q-172 4 -246 71q-31 28 -37 265v272q0 154 -6 295q2 131 63 192q72 68 256 68q43 0 99 -2q86 -2 129 -40t41 -114z" />
    <glyph glyph-name="idieresis" unicode="&#xef;" horiz-adv-x="671" 
d="M180 1225q-127 0 -127 121q0 123 127 122q117 0 117 -127q0 -116 -117 -116zM510 1225q-125 0 -125 121q0 123 125 122q115 0 115 -127q0 -116 -115 -116zM629 997l-8 -802q-3 -120 -62 -166q-45 -33 -176 -39h-53q-172 4 -246 71q-31 28 -37 265v272q0 151 -6 295
q2 131 63 192q72 68 256 68q43 0 99 -2q86 -2 129 -40t41 -114z" />
    <glyph glyph-name="eth" unicode="&#xf0;" horiz-adv-x="1325" 
d="M764 684h12q43 2 64.5 -26.5t21.5 -88.5q0 -55 -22.5 -82.5t-67.5 -25.5h-8q4 -68 16 -133q6 -16 31 -21q135 -6 180 156q14 45 15 110q0 215 -152 258q-28 9 -43 7q-25 -4 -33 -17q0 -25 -6 -67zM166 461h-37q-45 -2 -66.5 25.5t-21.5 82.5q0 59 21.5 88t66.5 27h37
q3 353 31 399q39 70 419 70q434 0 601 -305q68 -127 67 -275q0 -346 -291 -499q-162 -84 -381 -84q-367 0 -415 71q-28 41 -31 400z" />
    <glyph glyph-name="ntilde" unicode="&#xf1;" horiz-adv-x="1185" 
d="M1133 1026q12 -207 12 -606q0 -270 -15 -330q-10 -41 -28 -57q-47 -41 -107 -41h-123q-123 0 -204 80q-207 201 -289 266q-10 6 -14 6q-18 0 -19 -70v-75q0 -31 6 -90q6 -61 -26.5 -91t-98.5 -28l-69 2q-92 2 -103 141q-16 256 -12 457q2 442 66 508q55 58 172 55l131 -2
q100 -2 188 -100l211 -232q18 -18 24.5 -18t10.5 16q0 37 -8 219q-2 57 29.5 86t95.5 29h63q99 0 107 -125zM809 1477q65 -9 55 -68q-29 -154 -139 -174q-33 -8 -66 -2q-29 4 -59.5 22.5t-42.5 28.5t-45 43q-6 2 -14 0q-15 -3 -25 -49q-6 -41 -29 -51q-14 -4 -63 2
q-70 8 -59 67q29 156 139 177q31 6 67 2q61 -8 119 -70q25 -27 43 -27q14 2 21 49q8 45 26 52q25 4 72 -2z" />
    <glyph glyph-name="ograve" unicode="&#xf2;" 
d="M1274 571q0 -281 -172 -440q-169 -160 -455 -160q-283 0 -444.5 159t-161.5 441q0 285 160.5 444t445.5 159q442 0 592 -377q35 -124 35 -226zM692 305q82 23 90 182q6 111 -16 209q-33 141 -125 148q-96 6 -109 -178q-2 -23 -2 -62q0 -186 91 -276q30 -33 71 -23z
M643 1270l-65 73l-70 78q-18 23 -16 35q0 31 102 31q61 0 84 -6q41 -10 59 -54l5 -9l17.5 -30.5t24.5 -44.5q45 -74 41 -98q-2 -20 -53 -20h-47q-37 0 -82 45z" />
    <glyph glyph-name="oacute" unicode="&#xf3;" 
d="M1274 571q0 -281 -172 -440q-169 -160 -455 -160q-283 0 -444.5 159t-161.5 441q0 285 160.5 444t445.5 159q442 0 592 -377q35 -124 35 -226zM692 305q82 23 90 182q6 111 -16 209q-33 141 -125 148q-96 6 -109 -178q-2 -23 -2 -62q0 -186 91 -276q30 -33 71 -23z
M592 1225h-47q-51 0 -53 20q-4 12 36 90l50 92q16 43 59 54q25 6 84 6q102 0 106 -31q0 -14 -18 -35l-70 -78q-22 -28 -61 -73t-86 -45z" />
    <glyph glyph-name="ocircumflex" unicode="&#xf4;" 
d="M1274 571q0 -281 -172 -440q-169 -160 -455 -160q-283 0 -444.5 159t-161.5 441q0 285 160.5 444t445.5 159q442 0 592 -377q35 -124 35 -226zM692 305q82 23 90 182q6 111 -16 209q-33 141 -125 148q-96 6 -109 -178q-2 -23 -2 -62q0 -186 91 -276q30 -33 71 -23z
M655 1391q-6 0 -30 -80q-18 -61 -41 -73.5t-90 -12.5q-66 0 -68 26q-4 23 18 66l78 149q41 78 133 78q94 0 136 -78l77 -149q23 -45 23 -53q0 -39 -72 -39q-68 0 -88 10q-25 16 -43 76q-25 80 -33 80z" />
    <glyph glyph-name="otilde" unicode="&#xf5;" 
d="M1274 571q0 -281 -172 -440q-169 -160 -455 -160q-283 0 -444.5 159t-161.5 441q0 285 160.5 444t445.5 159q442 0 592 -377q35 -124 35 -226zM692 305q82 23 90 182q6 111 -16 209q-33 141 -125 148q-96 6 -109 -178q-2 -23 -2 -62q0 -186 91 -276q30 -33 71 -23z
M928 1409q-4 -25 -29 -94q-41 -66 -108 -80q-37 -8 -66 -2q-29 4 -59.5 21.5t-43 28.5t-47.5 44q-6 2 -14 0q-18 -3 -24 -49q-6 -43 -29 -49q-12 -6 -64 0q-70 8 -59 67q29 150 139 177q37 6 68 2q78 -10 119 -70q25 -27 45 -27q20 4 22 49.5t23 51.5q25 4 65 0
q45 -6 56.5 -21.5t5.5 -48.5z" />
    <glyph glyph-name="odieresis" unicode="&#xf6;" 
d="M1274 571q0 -281 -172 -440q-169 -160 -455 -160q-283 0 -444.5 159t-161.5 441q0 285 160.5 444t445.5 159q442 0 592 -377q35 -124 35 -226zM692 305q82 23 90 182q6 111 -16 209q-33 141 -125 148q-96 6 -109 -178q-2 -23 -2 -62q0 -186 91 -276q30 -33 71 -23z
M500 1225q-125 0 -125 121q0 123 125 122q115 0 114 -127q1 -116 -114 -116zM827 1225q-125 0 -125 121q0 123 125 122q117 0 117 -127q0 -116 -117 -116z" />
    <glyph glyph-name="divide" unicode="&#xf7;" horiz-adv-x="882" 
d="M143 449q-51 -2 -76.5 29.5t-25.5 94.5q0 66 24.5 99t75.5 30q307 -4 600 0q51 2 76 -30.5t25 -98.5q0 -63 -27 -95t-80 -29q-258 6 -592 0zM442.5 743q-153.5 0 -153.5 154t153.5 154t153.5 -154t-153.5 -154zM442.5 102q-153.5 0 -153.5 154t153.5 154t153.5 -154
t-153.5 -154z" />
    <glyph glyph-name="oslash" unicode="&#xf8;" 
d="M332 -74q-18 -31 -56 -10q-39 20 -20 51l49 84q-49 29 -102 78q-162 156 -162 442q0 285 160.5 444t445.5 159q160 0 283 -48l55 99q15 28 55 6q33 -20 17 -53l-51 -88l4 -3q139 -70 229 -290q35 -123 35 -226q0 -281 -172 -440q-169 -160 -455 -160q-151 0 -264 43
q-10 -16 -51 -88zM641 844q-96 6 -109 -178q-9 -120 13 -203l184 319q-41 60 -88 62zM692 305q82 23 90 182q6 117 -12 197l-184 -315q49 -78 106 -64z" />
    <glyph glyph-name="ugrave" unicode="&#xf9;" horiz-adv-x="1249" 
d="M545 1343q-20 20 -72 78q-18 23 -16 35q0 31 102 31q63 0 84 -6q35 -10 64 -58l43 -80q47 -70 41 -98q-2 -20 -56 -20h-45q-35 0 -74 39q-1 3 -71 79zM1206 811q4 -47 0 -223q-4 -201 -82 -355q-63 -129 -209 -200q-125 -61 -286 -62q-281 0 -439 195q-147 180 -149 467
v76q0 70 2 165q2 258 170 269q111 6 182 8q201 4 234 -41q16 -25 14 -102q0 -82 -8 -211q-6 -133 -6 -213q2 -236 127 -236h32q113 12 113 180l-2 527q0 84 150 84q145 0 149 -78q0 -12 3 -99.5z" />
    <glyph glyph-name="uacute" unicode="&#xfa;" horiz-adv-x="1249" 
d="M657 1288l-8 -10q-43 -53 -92 -53h-47q-51 0 -53 20q-6 12 37 90q4 6 14 26.5t14 28t13.5 24t15.5 24.5t15 18t18.5 16.5t19.5 8.5q23 6 84 6q63 0 88 -10q12 -8 15 -21q0 -16 -60 -86zM1206 811q4 -47 0 -223q-4 -201 -82 -355q-63 -129 -209 -200q-125 -61 -286 -62
q-281 0 -439 195q-147 180 -149 467v76q0 70 2 165q2 258 170 269q111 6 182 8q201 4 234 -41q16 -25 14 -102q0 -82 -8 -211q-6 -133 -6 -213q2 -236 127 -236h32q113 12 113 180l-2 527q0 84 150 84q145 0 149 -78q0 -12 3 -99.5z" />
    <glyph glyph-name="ucircumflex" unicode="&#xfb;" horiz-adv-x="1249" 
d="M623 1391q-8 0 -33 -80q-9 -34 -37 -74q-20 -12 -94 -12q-66 0 -68 26q-4 23 19 66l77 149q41 78 136 78q92 0 133 -78l80 -149q20 -47 20 -53q0 -39 -72 -39q-68 0 -90 12q-18 10 -41 74q-24 77 -30 80zM1206 811q4 -47 0 -223q-4 -201 -82 -355q-63 -129 -209 -200
q-125 -61 -286 -62q-281 0 -439 195q-147 180 -149 467v76q0 70 2 165q2 258 170 269q111 6 182 8q201 4 234 -41q16 -25 14 -102q0 -82 -8 -211q-6 -133 -6 -213q2 -236 127 -236h32q113 12 113 180l-2 527q0 84 150 84q145 0 149 -78q0 -12 3 -99.5z" />
    <glyph glyph-name="udieresis" unicode="&#xfc;" horiz-adv-x="1249" 
d="M465 1225q-125 0 -125 121q0 123 125 122q115 0 115 -127q0 -116 -115 -116zM793 1225q-125 0 -125 121q0 123 125 122q117 0 116 -127q1 -116 -116 -116zM1206 811q4 -47 0 -223q-4 -201 -82 -355q-63 -129 -209 -200q-125 -61 -286 -62q-281 0 -439 195
q-147 180 -149 467v76q0 70 2 165q2 258 170 269q111 6 182 8q201 4 234 -41q16 -25 14 -102q0 -82 -8 -211q-6 -133 -6 -213q2 -236 127 -236h32q113 12 113 180l-2 527q0 84 150 84q145 0 149 -78q0 -12 3 -99.5z" />
    <glyph glyph-name="yacute" unicode="&#xfd;" horiz-adv-x="1280" 
d="M377 188q0 51 -6 156q-2 104 -29 145q-74 113 -215 359q-86 151 -86 215q0 78 231 88q53 4 95 0q80 -2 125 -21q49 -23 133 -133l112 -157q16 -12 28.5 -12.5t20.5 6.5q45 51 88 131q76 147 89 155q18 18 73 23q203 9 203 -56q0 -55 -45 -159q-34 -83 -246 -443
q-15 -28 -12 -123l6 -167q3 -120 -61 -166q-47 -33 -179 -39h-53q-104 2 -194 37q-49 25 -66 63q-9 24 -12 98zM575 1225h-47q-51 0 -53 20q-4 10 88 182q16 43 60 54q25 6 84 6q102 0 102 -31q0 -10 -86 -113q-31 -41 -64 -75q-43 -43 -84 -43z" />
    <glyph glyph-name="thorn" unicode="&#xfe;" horiz-adv-x="1265" 
d="M946 774q0 86 -82 92l-26 2q-68 6 -107 -10q-53 -23 -47 -84q0 -106 137 -98q125 8 125 98zM684 324v-107q0 -96 -20 -135q-39 -80 -213 -92q-28 -3 -117 0q-35 0 -131 10q-76 14 -113 61q-49 57 -49 502q0 741 35 807q20 39 67 57q80 31 363 41q160 3 160 -153v-162
q559 0 559 -381q0 -164 -90 -244q-82 -72 -254 -96l-76 -10q-47 -8 -51 -8q-39 -10 -47 -21q-23 -26 -23 -69z" />
    <glyph glyph-name="ydieresis" unicode="&#xff;" horiz-adv-x="1280" 
d="M948 512q-15 -31 -12 -123l6 -229q2 -78 -53 -121t-166 -47q-12 0 -21 -2h-49q-160 0 -235 71q-18 16 -23 125v97q4 188 -28 235q-131 152 -240 342q-86 151 -86 215q0 80 231 86q59 4 95 0q84 -4 129 -10q31 -9 92 -92l53 -78l47 -80q18 -35 74 -96q16 -12 33 -12
q55 0 129 137l17 34.5l19.5 41t16.5 36.5q41 84 59 95q18 12 68 16q135 9 135 -55q0 -53 -45 -158q-76 -178 -176 -330q-4 -8 -70 -98zM492 1260q-131 0 -132 124q-4 135 132 136q125 0 124 -136q1 -124 -124 -124zM846 1260q-131 0 -131 124q-2 135 131 136q129 0 129 -136
q0 -124 -129 -124z" />
    <glyph glyph-name="dotlessi" unicode="&#x131;" horiz-adv-x="579" 
d="M426 1153h20q92 0 93 -88v-21q-2 -10 -2 -38l-7 -400q0 -63 -27.5 -87.5t-96.5 -29.5h-41q-100 4 -138 41q-16 16 -18 70q-2 18 -2 119v141q0 63 -17 64q-4 0 -33.5 -14.5t-37.5 -14.5q-49 0 -68 70q-10 35 39 71q68 51 152 101q25 12 139 16h45z" />
    <glyph glyph-name="Lslash" unicode="&#x141;" horiz-adv-x="1392" 
d="M225 227l-86 -77q-33 -29 -65 8q-33 35 -2 63l143 131q-6 129 -6 316q0 244 8 399q10 166 139 221q70 29 406 29q96 0 137 -72q29 -53 29 -160v-84l135 125q27 27 59 -10q23 -25 17 -43q-2 -12 -15 -20l-198 -183v-286v-78q0 -31 12 -141q25 -34 129 -31q28 0 98 6
q61 6 97 6q45 0 69 -53q20 -43 20.5 -110.5t-61.5 -108.5q-35 -23 -125 -45q-174 -41 -417 -41q-147 0 -271 8q-137 10 -209 76q-29 24 -43 155z" />
    <glyph glyph-name="lslash" unicode="&#x142;" horiz-adv-x="1226" 
d="M203 201l-76 -70q-29 -29 -57 4q-29 35 -2 58l127 114q-6 115 -7 275q0 -1183 -6 192q0 135 25 211q31 104 110 139q61 27 353 27q145 0 145 -203v-74l119 109q23 25 53 -10q18 -20 12 -35q-3 -12 -12 -18l-174 -160v-320q0 -25 12 -123q22 -28 111 -24q6 0 16.5 1t31 2
t38.5 1q70 4 86 4q78 0 78 -141q0 -61 -53 -97q-29 -18 -109 -36q-156 -37 -367 -37q-154 0 -219 4q-141 16 -198 67q-25 21 -37 140z" />
    <glyph glyph-name="OE" unicode="&#x152;" horiz-adv-x="2156" 
d="M2021 348q68 9 86 -86q8 -39 9 -80q0 -125 -189 -162q-164 -33 -446 -32q-158 0 -199 8q-111 23 -168 96q-164 -123 -377 -123q-326 0 -512 181q-184 182 -184 505q0 328 184 508q186 182 512 183q215 0 375 -117q65 61 160 80q61 10 182 10q273 0 473 -37
q188 -35 189 -162q0 -162 -91 -162q-29 0 -100 11q-65 12 -98 12q-100 2 -131 -14q-39 -20 -39 -86q0 -86 104 -97q96 -10 176 -12q72 -4 70 -121q0 -82 -39 -106q-29 -16 -133 -15q-119 2 -154 -32q-25 -25 -24 -70q0 -61 41 -86q31 -16 129 -14q71 0 194 20zM786 350
q94 20 105 207q8 121 -21 242q-41 164 -143 168q-111 4 -123 -205q-16 -281 103 -387q36 -34 79 -25z" />
    <glyph glyph-name="oe" unicode="&#x153;" horiz-adv-x="1892" 
d="M1769 303q61 8 76 -74q6 -33 6 -69q0 -111 -163 -142q-156 -29 -390 -28q-133 0 -174 8q-94 14 -147 82q-139 -109 -330 -109q-283 0 -444.5 159t-161.5 441q0 285 160.5 444t445.5 159q190 0 328 -101q55 55 139 70q61 10 160 10q229 0 414 -35q78 -16 114 -37
q49 -37 49 -104q0 -45 -16 -88q-23 -53 -61 -53q-23 0 -88.5 10t-86.5 10q-88 2 -112 -12q-35 -23 -35 -76q0 -66 96 -84q39 -4 150 -10q61 -4 59 -107q0 -70 -35 -92q-18 -12 -116.5 -12t-132.5 -29q-20 -20 -21 -61q0 -53 37 -76q20 -12 110 -10q49 0 170 16zM692 305
q82 23 90 182q6 111 -16 209q-33 141 -125 148q-96 6 -109 -178q-2 -23 -2 -62q0 -186 91 -276q30 -33 71 -23z" />
    <glyph glyph-name="Scaron" unicode="&#x160;" horiz-adv-x="1361" 
d="M694 -31q-221 -8 -418 66q-119 43 -202 119q-33 27 -33 82q0 31 8 61q45 125 107 129q49 0 100 -37q88 -63 137 -63q57 0 57.5 55t-94.5 104q-285 150 -293 373q-18 469 605 490q221 8 417 -66q119 -43 203 -119q33 -27 33 -82q0 -31 -8 -61q-45 -125 -107 -129
q-47 0 -100 37q-88 63 -137 63q-57 0 -57.5 -55t94.5 -105q285 -150 292 -372q19 -470 -604 -490zM680 1577q9 0 37 92q10 35 16 45q14 37 55 47q20 4 78 4q82 0 82 -41q0 -16 -24 -63l-90 -170q-45 -88 -154 -88t-154 88l-90 170q-25 45 -20 76q4 29 78 28q80 0 100 -12
q27 -14 49 -84q28 -92 37 -92z" />
    <glyph glyph-name="scaron" unicode="&#x161;" horiz-adv-x="1200" 
d="M612 -29q-203 -4 -366 60q-96 35 -176 102q-29 29 -29 72q0 25 6 53q43 111 94 113q43 0 88 -31q78 -55 119 -55q49 0 49 47q0 49 -82 92q-246 131 -256 326q-8 205 124 311t405 115q190 8 364 -58q98 -37 178 -102q29 -25 29 -72q0 -29 -8 -53q-39 -111 -92 -115
q-41 0 -88 35q-78 55 -121 55q-49 0 -49 -49t82 -92q246 -127 256 -324q8 -207 -123.5 -314.5t-403.5 -115.5zM598 1376q12 0 33 80q12 35 14 39q12 34 49 43q16 4 68 4q72 0 72 -37q0 -14 -23 -55l-78 -150q-39 -76 -135 -75q-94 0 -133 75l-80 150q-20 37 -16 66
q2 27 67 26q71 0 86 -12q27 -14 45 -74q22 -80 31 -80z" />
    <glyph glyph-name="Ydieresis" unicode="&#x178;" horiz-adv-x="1456" 
d="M424 217l-6 176q-6 133 -33 166l-246 412q-98 172 -98 246q0 90 264 100q61 4 109 0q94 -2 143 -23q61 -25 111 -96l170 -235q14 -14 32 -15q14 0 25 8q47 51 100 150q90 170 101 178q27 20 84 25q236 8 235 -64q0 -127 -188 -444l-148 -246q-15 -28 -12 -141l6 -191
q4 -139 -72 -190q-51 -35 -202 -45q-23 -4 -60 0q-197 6 -280 84q-31 28 -35 145zM547 1403q-143 0 -144 137q0 141 144 141q133 0 133 -145q0 -133 -133 -133zM924 1403q-143 0 -144 137q0 141 144 141q133 0 133 -145q0 -133 -133 -133z" />
    <glyph glyph-name="Zcaron" unicode="&#x17d;" horiz-adv-x="1294" 
d="M645 -10l-336 2q-268 23 -268 112v115q0 96 207 413.5t207 332.5q0 10 -11 14q-25 6 -53 6q-40 0 -110 -12q-61 -10 -111 -15q-76 -2 -102 52q-18 40 -19 123q4 121 129 157q111 31 471 29l336 -2q268 -23 268 -113v-114q0 -98 -206.5 -416t-206.5 -330q0 -10 10 -14
q25 -6 53 -6q40 0 111 12q61 10 110 14q76 2 103 -51q18 -40 18 -123q-4 -121 -129 -158q-111 -30 -471 -28zM645 1577q9 0 37 92q10 35 16 45q14 37 56 47q20 4 77 4q82 0 82 -41q0 -16 -24 -63l-90 -170q-45 -88 -153.5 -88t-153.5 88l-91 170q-25 45 -20 76q4 29 78 28
q78 0 100 -12q27 -14 49 -84q28 -92 37 -92z" />
    <glyph glyph-name="zcaron" unicode="&#x17e;" horiz-adv-x="1140" 
d="M569 -10q-238 2 -407 18q-121 12 -121 84v98q0 88 180 362.5t180 289.5q0 10 -8 12q-22 6 -49 6q-29 0 -96 -10l-94 -14q-53 -4 -80 33.5t-27 119.5q0 102 115 137q109 29 411 27q240 -3 406 -18q121 -12 121 -84v-99q0 -84 -182 -362q-180 -274 -181 -291q0 -6 11 -10
q22 -6 49 -6t98 10q65 9 92 12q66 4 90 -45q16 -37 17 -106q-4 -129 -217 -160q-60 -6 -308 -4zM569 1376q9 0 31 80q14 59 43 76q20 10 88 10q72 0 72 -37q0 -10 -23 -55l-78 -150q-39 -76 -133 -75q-96 0 -135 75l-78 150q-23 43 -18 66q2 27 68 26q68 0 88 -10
q29 -16 43 -76q20 -80 32 -80z" />
    <glyph glyph-name="florin" unicode="&#x192;" horiz-adv-x="1388" 
d="M352 573h-65q-102 0 -103 125q0 66 24.5 98.5t76.5 30.5q55 0 108 -2q78 362 279 463q106 55 346 55q92 0 260 -6q70 -2 68 -125q-2 -186 -76 -192l-49 -4q-80 -6 -107 -180q0 -6 -2 -11q29 0 66 2q51 2 75.5 -30.5t24.5 -98.5q0 -125 -107 -125h-96l-31 -208l-18 -123
q-4 -33 -12 -76q-72 -451 -297 -563q-111 -55 -346 -56q-92 0 -260 7q-70 2 -68 124q2 186 76 193l49 4q82 6 106 180q25 168 29 189l23 141q10 79 26 188z" />
    <glyph glyph-name="circumflex" unicode="&#x2c6;" horiz-adv-x="618" 
d="M309 1591q-9 0 -37 -92q-10 -35 -16 -45q-8 -27 -27 -37q-20 -14 -106 -14q-74 0 -78 31q-4 29 21 73l90 170q45 88 153.5 88t153.5 -88l90 -170q25 -45 25 -63q0 -41 -82 -41q-78 0 -101 12q-27 14 -49 84q-28 92 -37 92z" />
    <glyph glyph-name="caron" unicode="&#x2c7;" horiz-adv-x="618" 
d="M309 1575q9 0 37 92q10 35 16 45q14 37 56 47q20 4 78 4q82 0 82 -41q0 -18 -25 -63l-90 -170q-45 -88 -153.5 -88t-153.5 88l-90 170q-25 45 -21 76q4 29 78 28q78 0 100 -12q27 -14 49 -84q28 -92 37 -92z" />
    <glyph glyph-name="breve" unicode="&#x2d8;" horiz-adv-x="468" 
d="M313 1595q0 20 17 21h86q12 0 12 -21q0 -193 -186 -192q-201 0 -201 192q0 20 14 21h88q12 0 13 -21q0 -76 82 -75q75 -1 75 75z" />
    <glyph glyph-name="dotaccent" unicode="&#x2d9;" horiz-adv-x="358" 
d="M184 1403q-143 0 -143 137q0 141 143 141q133 0 133 -145q0 -133 -133 -133z" />
    <glyph glyph-name="ring" unicode="&#x2da;" horiz-adv-x="468" 
d="M242 1403q-201 0 -201 192q0 199 201 199q186 0 186 -205q0 -186 -186 -186zM313 1595q0 82 -75 82q-82 0 -82 -80q0 -78 82 -77q75 -1 75 75z" />
    <glyph glyph-name="ogonek" unicode="&#x2db;" horiz-adv-x="481" 
d="M246 10h82q47 0 53 -33q4 -23 -41 -83q-46 -71 -55 -105q-8 -37 7 -63.5t50 -26.5q8 0 29.5 10t27.5 10q20 -2 39 -43q2 -6 2 -16q0 -45 -78 -70q-59 -23 -114 -18q-207 6 -207 195q0 82 61 163q66 80 144 80z" />
    <glyph glyph-name="tilde" unicode="&#x2dc;" horiz-adv-x="724" 
d="M608 1690q76 -8 64 -78q-39 -229 -234 -201q-72 8 -137 78q-29 33 -49 29q-18 -2 -29 -56q-6 -52 -24 -55q-23 -6 -82 0q-74 8 -66 78q25 170 160 198q39 8 76 5q80 -10 137 -80q10 -12 33 -29q6 -2 16 -2q20 2 27 59q4 47 26 54q25 6 82 0z" />
    <glyph glyph-name="hungarumlaut" unicode="&#x2dd;" horiz-adv-x="833" 
d="M471 1403q-55 0 -61 24q-6 16 16 58l68 117q0 2 3 7t6 12t7 15q23 47 68 60q25 6 96 6q115 0 119 -35q0 -25 -101 -127l-16 -21.5t-26.5 -33t-26.5 -33.5q-43 -49 -152 -49zM109 1403q-55 0 -62 24q-6 16 16 58l68 117q0 2 3 7t6 12t7 15q23 47 68 60q25 6 96 6
q115 0 119 -35q0 -25 -100 -127l-16.5 -21.5t-27 -33t-26.5 -33.5q-42 -49 -151 -49z" />
    <glyph glyph-name="endash" unicode="&#x2013;" horiz-adv-x="1024" 
d="M143 418q-51 -2 -76.5 38t-25.5 117q0 82 24.5 123t75.5 39q254 -4 371 -4t371 4q51 2 75.5 -39t24.5 -123q0 -78 -26.5 -117.5t-79.5 -37.5q-337 6 -734 0z" />
    <glyph glyph-name="emdash" unicode="&#x2014;" horiz-adv-x="1208" 
d="M143 418q-51 -2 -76.5 38t-25.5 117q0 82 24.5 123t75.5 39q469 -6 926 0q51 2 75.5 -39t24.5 -123q0 -78 -26.5 -117.5t-79.5 -37.5q-412 8 -918 0z" />
    <glyph glyph-name="quoteleft" unicode="&#x2018;" horiz-adv-x="442" 
d="M260 1632q98 0 115 -47q6 -18 -6 -72q-14 -55 -15 -75q0 -65 31 -142q16 -33 16 -57q0 -76 -139 -106q-51 -10 -78 -11q-143 0 -143 162q0 100 61 248q25 61 56.5 80.5t101.5 19.5z" />
    <glyph glyph-name="quoteright" unicode="&#x2019;" horiz-adv-x="442" 
d="M182 1092q-102 0 -114 47q-6 20 6 71q14 55 14 76q0 65 -31 141q-16 33 -16 58q0 88 164 112q33 4 53 5q143 0 143 -162q0 -100 -61 -248q-25 -61 -56.5 -80.5t-101.5 -19.5z" />
    <glyph glyph-name="quotesinglbase" unicode="&#x201a;" horiz-adv-x="442" 
d="M182 -172q-102 0 -114 47q-6 20 6 72q14 55 14 76q0 65 -31 141q-16 33 -16 57q0 88 164 113q33 4 53 4q143 0 143 -162q0 -100 -61 -248q-25 -61 -56.5 -80.5t-101.5 -19.5z" />
    <glyph glyph-name="quotedblleft" unicode="&#x201c;" horiz-adv-x="870" 
d="M688 1632q98 0 115 -47q6 -18 -6 -72q-14 -55 -15 -75q0 -65 31 -142q16 -33 16 -57q0 -76 -139 -106q-51 -10 -78 -11q-143 0 -143 162q0 100 61 248q25 61 56.5 80.5t101.5 19.5zM260 1632q98 0 115 -47q6 -18 -6 -72q-14 -55 -15 -75q0 -65 31 -142q16 -33 16 -57
q0 -76 -139 -106q-51 -10 -78 -11q-143 0 -143 162q0 100 61 248q25 61 56.5 80.5t101.5 19.5z" />
    <glyph glyph-name="quotedblright" unicode="&#x201d;" horiz-adv-x="870" 
d="M182 1092q-102 0 -114 47q-6 20 6 71q14 55 14 76q0 65 -31 141q-16 33 -16 58q0 88 164 112q33 4 53 5q143 0 143 -162q0 -100 -61 -248q-25 -61 -56.5 -80.5t-101.5 -19.5zM610 1092q-102 0 -114 47q-6 20 6 71q14 55 14 76q0 65 -31 141q-16 33 -16 58q0 88 164 112
q33 4 53 5q143 0 143 -162q0 -100 -61 -248q-25 -61 -56.5 -80.5t-101.5 -19.5z" />
    <glyph glyph-name="quotedblbase" unicode="&#x201e;" horiz-adv-x="870" 
d="M182 -172q-102 0 -114 47q-6 20 6 72q14 55 14 76q0 65 -31 141q-16 33 -16 57q0 88 164 113q33 4 53 4q143 0 143 -162q0 -100 -61 -248q-25 -61 -56.5 -80.5t-101.5 -19.5zM610 -172q-102 0 -114 47q-6 20 6 72q14 55 14 76q0 65 -31 141q-16 33 -16 57q0 88 164 113
q33 4 53 4q143 0 143 -162q0 -100 -61 -248q-25 -61 -56.5 -80.5t-101.5 -19.5z" />
    <glyph glyph-name="dagger" unicode="&#x2020;" horiz-adv-x="759" 
d="M225 842h-82q-51 -2 -76.5 29.5t-25.5 95.5q0 66 24.5 98.5t75.5 30.5q43 0 82 -2q0 41 -2 104q-2 59 39 90t123 31q164 0 158 -133q-2 -31 -2 -92q29 0 80 2t75.5 -31t24.5 -98q0 -125 -107 -125h-77q-4 -360 6 -729q2 -63 -38 -94t-120 -31q-82 0 -123 29.5t-39 88.5
q6 365 4 736z" />
    <glyph glyph-name="daggerdbl" unicode="&#x2021;" horiz-adv-x="759" 
d="M225 514h-82q-51 -2 -76.5 29.5t-25.5 95.5q0 66 24.5 98.5t75.5 30.5q43 0 84 -2v78h-82q-51 -2 -76.5 29.5t-25.5 95.5q0 66 24.5 98.5t75.5 30.5q43 0 82 -2q0 39 -2 102q-2 59 39 90t123 31q164 0 158 -133q-2 -31 -2 -90q29 0 80 2t75.5 -31t24.5 -98
q0 -125 -107 -125h-77v-78q33 0 84 2t75.5 -30.5t24.5 -98.5q0 -125 -107 -125h-77q4 -111 6 -401q2 -63 -38 -94t-120 -31q-82 0 -123 29.5t-39 88.5q4 250 4 408z" />
    <glyph glyph-name="bullet" unicode="&#x2022;" horiz-adv-x="696" 
d="M348 264q-307 0 -307 307.5t307 307.5t307 -307.5t-307 -307.5z" />
    <glyph glyph-name="ellipsis" unicode="&#x2026;" horiz-adv-x="1515" 
d="M256 -31q-215 0 -215 205q0 213 215 213q201 0 201 -217q0 -201 -201 -201zM766 -31q-215 0 -215 205q0 213 215 213q201 0 201 -217q0 -201 -201 -201zM1274 -31q-215 0 -215 205q0 213 215 213q201 0 201 -217q0 -201 -201 -201z" />
    <glyph glyph-name="perthousand" unicode="&#x2030;" horiz-adv-x="2383" 
d="M774 1114l4 -12q16 -53 19 -109l157 269q74 141 289 106q229 -39 154 -170l-242 -410q59 20 137 21q246 0 336 -195q25 45 49 76q100 119 281 119q283 0 360 -258l4 -12q20 -61 21 -146q0 -184 -98 -295q-104 -115 -286.5 -114.5t-281.5 116.5q-33 39 -47 72
q-18 -33 -51 -74q-104 -115 -286.5 -114.5t-280.5 116.5q-86 102 -92 269l-166 -306q-59 -119 -281 -102q-246 6 -151 191l231 415q-59 -20 -139 -20q-182 0 -281 117q-92 108 -92 294q0 184 92 295q100 119 281 119q282 0 360 -258zM1989 205q59 16 65 127q2 76 -16 149
q-25 104 -88 107q-33 2 -52.5 -29t-23.5 -94q-2 -14 -2 -43q0 -143 67 -201q23 -20 50 -16zM444 768q59 16 66 127q2 76 -16 149q-25 104 -88 107q-33 2 -52.5 -28.5t-23.5 -94.5q-2 -14 -2 -43q0 -141 67 -201q22 -20 49 -16zM1323 205q59 16 66 127q2 76 -17 149
q-25 104 -88 107q-33 2 -52.5 -29t-23.5 -94q-2 -14 -2 -43q0 -143 68 -201q22 -20 49 -16z" />
    <glyph glyph-name="guilsinglleft" unicode="&#x2039;" horiz-adv-x="776" 
d="M705 272q31 -31 30 -65q0 -45 -51 -96q-49 -49 -94 -50q-35 0 -70 35l-446 447q-33 33 -33 76t31 73l452 453q31 31 66 31q45 0 94 -50q51 -49 51 -94q0 -37 -37 -71l-342 -343z" />
    <glyph glyph-name="guilsinglright" unicode="&#x203a;" horiz-adv-x="776" 
d="M72 272l176 172l172 174l-342 343q-37 37 -37 71q0 45 49 94q53 49 96 50q35 0 66 -31l453 -453q31 -31 30.5 -74t-33.5 -75l-446 -447q-35 -35 -70 -35q-43 0 -96 50q-49 53 -49 96q0 34 31 65z" />
    <glyph glyph-name="fraction" unicode="&#x2044;" horiz-adv-x="841" 
d="M473 53q-23 -84 -225 -84q-207 0 -189 78q133 582 328 1223q25 80 231 80q182 0 183 -72q0 -4 -4 -21q-166 -536 -324 -1204z" />
    <glyph glyph-name="Euro" unicode="&#x20ac;" horiz-adv-x="1576" 
d="M162 518h-80q-41 0 -41 49t39 49h74v43q0 41 2 62h-74q-41 0 -41 49t39 49h86q43 261 233 400q182 129 451 129q231 0 420 -111q227 -133 256 -367q10 -80 -70 -106q-16 -6 -145 -23q-96 -12 -111 70q-31 184 -180 164q-90 -12 -117 -156h88q39 0 39 -49t-43 -49h-94
q-2 -27 -2 -62v-43h100q39 0 39 -49q0 -52 -43 -49h-86q27 -180 133 -180q126 0 154 123q23 115 119 110q109 -4 143 -16q78 -29 78 -106q0 -22 -6 -50q-163 -430 -645 -430q-295 0 -476 129q-198 137 -239 420z" />
    <glyph glyph-name="trademark" unicode="&#x2122;" horiz-adv-x="1482" 
d="M193 1110q0 35 -39 35l-52 -2q-31 -2 -46 20.5t-15 67.5q0 68 102 78q180 12 336 10q117 -2 183 -25q35 -12 34 -53q0 -78 -37 -94q-14 -8 -47 -8q-14 0 -24 2h-25q-49 0 -49 -51l-2 -318q0 -66 -29.5 -90.5t-107.5 -28.5h-31q-96 4 -139 43q-16 16 -19 72q-1 51 7 342z
M727 1153q31 166 123 166h22q51 0 89 -45l61 -76q10 -12 16 -10q6 0 72 78q43 53 111 53h34q100 0 131 -166q39 -197 52 -414q4 -51 -33 -71q-31 -16 -82 -15l-66 2q-63 4 -83 19q-37 29 -50 174q-2 45 -12 45q-4 0 -72 -86q-25 -31 -47 -31q-29 0 -104 107q-4 6 -8 6
q-9 0 -13 -31l-12 -133q-6 -72 -96 -68q-76 2 -74 103q6 198 41 393z" />
    <glyph glyph-name="integral" unicode="&#x222b;" horiz-adv-x="1388" 
d="M1278 1337q70 -2 68 -125q-2 -186 -76 -192l-49 -4q-82 -6 -107 -180l-88 -594q-4 -33 -12 -76q-72 -451 -297 -563q-111 -55 -346 -56q-92 0 -260 7q-70 2 -68 124q2 186 76 193l49 4q82 6 106 180q25 160 29 189l43 284q2 18 11.5 83t17.5 114q66 449 297 563
q111 55 346 55q92 0 260 -6z" />
  </font>
</defs>
</svg>
